  0
SECTION
  2
HEADER
  9
$ACADVER
  1
AC1032
  9
$ACADMAINTVER
 90
      378
  9
$DWGCODEPAGE
  3
ANSI_1252
  9
$LASTSAVEDBY
  1
abo
  9
$REQUIREDVERSIONS
160
                 0
  9
$INSBASE
 10
0.0
 20
0.0
 30
0.0
  9
$EXTMIN
 10
4.237499999999954
 20
-9.683511860757789
 30
0.0
  9
$EXTMAX
 10
332.9197862749956
 20
259.8989067639831
 30
0.0
  9
$LIMMIN
 10
0.0
 20
0.0
  9
$LIMMAX
 10
12.0
 20
9.0
  9
$ORTHOMODE
 70
     0
  9
$REGENMODE
 70
     1
  9
$FILLMODE
 70
     1
  9
$QTEXTMODE
 70
     0
  9
$MIRRTEXT
 70
     0
  9
$LTSCALE
 40
1.0
  9
$ATTMODE
 70
     1
  9
$TEXTSIZE
 40
0.2
  9
$TRACEWID
 40
0.05
  9
$TEXTSTYLE
  7
Standard
  9
$CLAYER
  8
mid
  9
$CELTYPE
  6
CONTINUOUS
  9
$CECOLOR
 62
   256
  9
$CELTSCALE
 40
1.0
  9
$DISPSILH
 70
     0
  9
$DIMSCALE
 40
1.0
  9
$DIMASZ
 40
0.18
  9
$DIMEXO
 40
0.0625
  9
$DIMDLI
 40
0.38
  9
$DIMRND
 40
0.0
  9
$DIMDLE
 40
0.0
  9
$DIMEXE
 40
0.18
  9
$DIMTP
 40
0.0
  9
$DIMTM
 40
0.0
  9
$DIMTXT
 40
0.18
  9
$DIMCEN
 40
0.09
  9
$DIMTSZ
 40
0.0
  9
$DIMTOL
 70
     0
  9
$DIMLIM
 70
     0
  9
$DIMTIH
 70
     1
  9
$DIMTOH
 70
     1
  9
$DIMSE1
 70
     0
  9
$DIMSE2
 70
     0
  9
$DIMTAD
 70
     0
  9
$DIMZIN
 70
     0
  9
$DIMBLK
  1

  9
$DIMASO
 70
     1
  9
$DIMSHO
 70
     1
  9
$DIMPOST
  1

  9
$DIMAPOST
  1

  9
$DIMALT
 70
     0
  9
$DIMALTD
 70
     2
  9
$DIMALTF
 40
25.4
  9
$DIMLFAC
 40
1.0
  9
$DIMTOFL
 70
     0
  9
$DIMTVP
 40
0.0
  9
$DIMTIX
 70
     0
  9
$DIMSOXD
 70
     0
  9
$DIMSAH
 70
     0
  9
$DIMBLK1
  1

  9
$DIMBLK2
  1

  9
$DIMSTYLE
  2
Standard
  9
$DIMCLRD
 70
     0
  9
$DIMCLRE
 70
     0
  9
$DIMCLRT
 70
     0
  9
$DIMTFAC
 40
1.0
  9
$DIMGAP
 40
0.09
  9
$DIMJUST
 70
     0
  9
$DIMSD1
 70
     0
  9
$DIMSD2
 70
     0
  9
$DIMTOLJ
 70
     1
  9
$DIMTZIN
 70
     0
  9
$DIMALTZ
 70
     0
  9
$DIMALTTZ
 70
     0
  9
$DIMUPT
 70
     0
  9
$DIMDEC
 70
     4
  9
$DIMTDEC
 70
     4
  9
$DIMALTU
 70
     2
  9
$DIMALTTD
 70
     2
  9
$DIMTXSTY
  7
Standard
  9
$DIMAUNIT
 70
     0
  9
$DIMADEC
 70
     0
  9
$DIMALTRND
 40
0.0
  9
$DIMAZIN
 70
     0
  9
$DIMDSEP
 70
    46
  9
$DIMATFIT
 70
     3
  9
$DIMFRAC
 70
     0
  9
$DIMLDRBLK
  1

  9
$DIMLUNIT
 70
     2
  9
$DIMLWD
 70
    -2
  9
$DIMLWE
 70
    -2
  9
$DIMTMOVE
 70
     0
  9
$DIMFXL
 40
1.0
  9
$DIMFXLON
 70
     0
  9
$DIMJOGANG
 40
0.7853981633974483
  9
$DIMTFILL
 70
     0
  9
$DIMTFILLCLR
 70
     0
  9
$DIMARCSYM
 70
     0
  9
$DIMLTYPE
  6

  9
$DIMLTEX1
  6

  9
$DIMLTEX2
  6

  9
$DIMTXTDIRECTION
 70
     0
  9
$LUNITS
 70
     2
  9
$LUPREC
 70
     4
  9
$SKETCHINC
 40
0.1
  9
$FILLETRAD
 40
0.75
  9
$AUNITS
 70
     0
  9
$AUPREC
 70
     0
  9
$MENU
  1
.
  9
$ELEVATION
 40
0.0
  9
$PELEVATION
 40
0.0
  9
$THICKNESS
 40
0.0
  9
$LIMCHECK
 70
     0
  9
$CHAMFERA
 40
0.0
  9
$CHAMFERB
 40
0.0
  9
$CHAMFERC
 40
0.0
  9
$CHAMFERD
 40
0.0
  9
$SKPOLY
 70
     0
  9
$TDCREATE
 40
2460918.965578704
  9
$TDUCREATE
 40
2460918.632245370
  9
$TDUPDATE
 40
2460922.101516203
  9
$TDUUPDATE
 40
2460921.768182871
  9
$TDINDWG
 40
1.0872916667
  9
$TDUSRTIMER
 40
1.0872916667
  9
$USRTIMER
 70
     1
  9
$ANGBASE
 50
0.0
  9
$ANGDIR
 70
     0
  9
$PDMODE
 70
     0
  9
$PDSIZE
 40
0.0
  9
$PLINEWID
 40
0.0
  9
$SPLFRAME
 70
     0
  9
$SPLINETYPE
 70
     6
  9
$SPLINESEGS
 70
     8
  9
$HANDSEED
  5
E62
  9
$SURFTAB1
 70
     6
  9
$SURFTAB2
 70
     6
  9
$SURFTYPE
 70
     6
  9
$SURFU
 70
     6
  9
$SURFV
 70
     6
  9
$UCSBASE
  2

  9
$UCSNAME
  2

  9
$UCSORG
 10
0.0
 20
0.0
 30
0.0
  9
$UCSXDIR
 10
1.0
 20
0.0
 30
0.0
  9
$UCSYDIR
 10
0.0
 20
1.0
 30
0.0
  9
$UCSORTHOREF
  2

  9
$UCSORTHOVIEW
 70
     0
  9
$UCSORGTOP
 10
0.0
 20
0.0
 30
0.0
  9
$UCSORGBOTTOM
 10
0.0
 20
0.0
 30
0.0
  9
$UCSORGLEFT
 10
0.0
 20
0.0
 30
0.0
  9
$UCSORGRIGHT
 10
0.0
 20
0.0
 30
0.0
  9
$UCSORGFRONT
 10
0.0
 20
0.0
 30
0.0
  9
$UCSORGBACK
 10
0.0
 20
0.0
 30
0.0
  9
$PUCSBASE
  2

  9
$PUCSNAME
  2

  9
$PUCSORG
 10
0.0
 20
0.0
 30
0.0
  9
$PUCSXDIR
 10
1.0
 20
0.0
 30
0.0
  9
$PUCSYDIR
 10
0.0
 20
1.0
 30
0.0
  9
$PUCSORTHOREF
  2

  9
$PUCSORTHOVIEW
 70
     0
  9
$PUCSORGTOP
 10
0.0
 20
0.0
 30
0.0
  9
$PUCSORGBOTTOM
 10
0.0
 20
0.0
 30
0.0
  9
$PUCSORGLEFT
 10
0.0
 20
0.0
 30
0.0
  9
$PUCSORGRIGHT
 10
0.0
 20
0.0
 30
0.0
  9
$PUCSORGFRONT
 10
0.0
 20
0.0
 30
0.0
  9
$PUCSORGBACK
 10
0.0
 20
0.0
 30
0.0
  9
$USERI1
 70
     0
  9
$USERI2
 70
     0
  9
$USERI3
 70
     0
  9
$USERI4
 70
     0
  9
$USERI5
 70
     0
  9
$USERR1
 40
0.0
  9
$USERR2
 40
0.0
  9
$USERR3
 40
0.0
  9
$USERR4
 40
0.0
  9
$USERR5
 40
0.0
  9
$WORLDVIEW
 70
     1
  9
$SHADEDGE
 70
     3
  9
$SHADEDIF
 70
    70
  9
$TILEMODE
 70
     1
  9
$MAXACTVP
 70
    64
  9
$PINSBASE
 10
0.0
 20
0.0
 30
0.0
  9
$PLIMCHECK
 70
     0
  9
$PEXTMIN
 10
1.000000000000000E+20
 20
1.000000000000000E+20
 30
1.000000000000000E+20
  9
$PEXTMAX
 10
-1.000000000000000E+20
 20
-1.000000000000000E+20
 30
-1.000000000000000E+20
  9
$PLIMMIN
 10
0.0
 20
0.0
  9
$PLIMMAX
 10
12.0
 20
9.0
  9
$UNITMODE
 70
     0
  9
$VISRETAIN
 70
     1
  9
$PLINEGEN
 70
     0
  9
$PSLTSCALE
 70
     1
  9
$TREEDEPTH
 70
  3020
  9
$CMLSTYLE
  2
Standard
  9
$CMLJUST
 70
     0
  9
$CMLSCALE
 40
1.0
  9
$PROXYGRAPHICS
 70
     1
  9
$MEASUREMENT
 70
     0
  9
$CELWEIGHT
370
    -1
  9
$ENDCAPS
280
     0
  9
$JOINSTYLE
280
     0
  9
$LWDISPLAY
290
     0
  9
$INSUNITS
 70
     4
  9
$HYPERLINKBASE
  1

  9
$STYLESHEET
  1

  9
$XEDIT
290
     1
  9
$CEPSNTYPE
380
     0
  9
$PSTYLEMODE
290
     1
  9
$FINGERPRINTGUID
  2
{3E0356A4-75A4-6141-9D84-CF6418F28922}
  9
$VERSIONGUID
  2
{FDB74E7D-AD87-3347-8708-0CC2E5BF565A}
  9
$EXTNAMES
290
     1
  9
$PSVPSCALE
 40
0.0
  9
$OLESTARTUP
290
     0
  9
$SORTENTS
280
   127
  9
$INDEXCTL
280
     0
  9
$HIDETEXT
280
     0
  9
$XCLIPFRAME
280
     2
  9
$HALOGAP
280
     0
  9
$OBSCOLOR
 70
   257
  9
$OBSLTYPE
280
     0
  9
$INTERSECTIONDISPLAY
280
     0
  9
$INTERSECTIONCOLOR
 70
   257
  9
$DIMASSOC
280
     1
  9
$PROJECTNAME
  1

  9
$CAMERADISPLAY
290
     0
  9
$LENSLENGTH
 40
50.0
  9
$CAMERAHEIGHT
 40
0.0
  9
$STEPSPERSEC
 40
2.0
  9
$STEPSIZE
 40
6.0
  9
$3DDWFPREC
 40
2.0
  9
$PSOLWIDTH
 40
0.25
  9
$PSOLHEIGHT
 40
4.0
  9
$LOFTANG1
 40
1.570796326794896
  9
$LOFTANG2
 40
1.570796326794896
  9
$LOFTMAG1
 40
0.0
  9
$LOFTMAG2
 40
0.0
  9
$LOFTPARAM
 70
     7
  9
$LOFTNORMALS
280
     1
  9
$LATITUDE
 40
37.795
  9
$LONGITUDE
 40
-122.394
  9
$NORTHDIRECTION
 40
0.0
  9
$TIMEZONE
 70
 -8000
  9
$LIGHTGLYPHDISPLAY
280
     1
  9
$TILEMODELIGHTSYNCH
280
     1
  9
$CMATERIAL
347
11
  9
$SOLIDHIST
280
     0
  9
$SHOWHIST
280
     1
  9
$DWFFRAME
280
     2
  9
$DGNFRAME
280
     0
  9
$REALWORLDSCALE
290
     1
  9
$INTERFERECOLOR
 62
     1
  9
$INTERFEREOBJVS
345
33
  9
$INTERFEREVPVS
346
30
  9
$CSHADOW
280
     0
  9
$SHADOWPLANELOCATION
 40
0.0
  0
ENDSEC
  0
SECTION
  2
CLASSES
  0
CLASS
  1
ACDBDICTIONARYWDFLT
  2
AcDbDictionaryWithDefault
  3
ObjectDBX Classes
 90
        0
 91
        1
280
     0
281
     0
  0
CLASS
  1
MATERIAL
  2
AcDbMaterial
  3
ObjectDBX Classes
 90
     1153
 91
        3
280
     0
281
     0
  0
CLASS
  1
VISUALSTYLE
  2
AcDbVisualStyle
  3
ObjectDBX Classes
 90
     4095
 91
       24
280
     0
281
     0
  0
CLASS
  1
SCALE
  2
AcDbScale
  3
ObjectDBX Classes
 90
     1153
 91
       17
280
     0
281
     0
  0
CLASS
  1
TABLESTYLE
  2
AcDbTableStyle
  3
ObjectDBX Classes
 90
     4095
 91
        1
280
     0
281
     0
  0
CLASS
  1
MLEADERSTYLE
  2
AcDbMLeaderStyle
  3
ACDB_MLEADERSTYLE_CLASS
 90
     4095
 91
        1
280
     0
281
     0
  0
CLASS
  1
ACDBSECTIONVIEWSTYLE
  2
AcDbSectionViewStyle
  3
ObjectDBX Classes
 90
     1025
 91
        1
280
     0
281
     0
  0
CLASS
  1
ACDBDETAILVIEWSTYLE
  2
AcDbDetailViewStyle
  3
ObjectDBX Classes
 90
     1025
 91
        1
280
     0
281
     0
  0
CLASS
  1
SORTENTSTABLE
  2
AcDbSortentsTable
  3
ObjectDBX Classes
 90
        0
 91
        6
280
     0
281
     0
  0
CLASS
  1
DICTIONARYVAR
  2
AcDbDictionaryVar
  3
ObjectDBX Classes
 90
        0
 91
        9
280
     0
281
     0
  0
CLASS
  1
CELLSTYLEMAP
  2
AcDbCellStyleMap
  3
ObjectDBX Classes
 90
     1152
 91
        6
280
     0
281
     0
  0
ENDSEC
  0
SECTION
  2
TABLES
  0
TABLE
  2
VPORT
  5
8
330
0
100
AcDbSymbolTable
 70
     1
  0
VPORT
  5
74
330
8
100
AcDbSymbolTableRecord
100
AcDbViewportTableRecord
  2
*Active
 70
     0
 10
0.0
 20
0.0
 11
1.0
 21
1.0
 12
154.8862447700877
 22
46.5281508222556
 13
0.0
 23
0.0
 14
1.0
 24
1.0
 15
0.0
 25
0.0
 16
0.0
 26
0.0
 36
1.0
 17
0.0
 27
0.0
 37
0.0
 40
242.3825151435276
 41
2.176303854875283
 42
50.0
 43
0.0
 44
0.0
 50
0.0
 51
0.0
 71
     0
 72
   100
 73
     1
 74
     1
 75
     0
 76
     0
 77
     0
 78
     0
281
     0
 65
     1
110
0.0
120
0.0
130
0.0
111
1.0
121
0.0
131
0.0
112
0.0
122
1.0
132
0.0
 79
     0
146
0.0
348
2F
 60
     3
 61
     5
292
     1
282
     1
141
0.0
142
0.0
 63
   250
421
  3355443
1001
ACAD_NAV_VCDISPLAY
1070
     3
  0
ENDTAB
  0
TABLE
  2
LTYPE
  5
5
330
0
100
AcDbSymbolTable
 70
     3
  0
LTYPE
  5
5A
330
5
100
AcDbSymbolTableRecord
100
AcDbLinetypeTableRecord
  2
ByBlock
 70
     0
  3

 72
    65
 73
     0
 40
0.0
  0
LTYPE
  5
5B
330
5
100
AcDbSymbolTableRecord
100
AcDbLinetypeTableRecord
  2
ByLayer
 70
     0
  3

 72
    65
 73
     0
 40
0.0
  0
LTYPE
  5
5C
330
5
100
AcDbSymbolTableRecord
100
AcDbLinetypeTableRecord
  2
CONTINUOUS
 70
     0
  3
______
 72
    65
 73
     0
 40
0.0
  0
ENDTAB
  0
TABLE
  2
LAYER
  5
2
102
{ACAD_XDICTIONARY
360
908
102
}
330
0
100
AcDbSymbolTable
 70
     4
  0
LAYER
  5
54
102
{ACAD_XDICTIONARY
360
883
102
}
330
2
100
AcDbSymbolTableRecord
100
AcDbLayerTableRecord
  2
0
 70
     0
 62
     7
  6
CONTINUOUS
370
    -3
390
F
347
21
348
0
  0
LAYER
  5
A7D
330
2
100
AcDbSymbolTableRecord
100
AcDbLayerTableRecord
  2
plate
 70
     0
 62
     1
  6
CONTINUOUS
370
    -3
390
F
347
21
348
0
1001
AcAecLayerStandard
1000

1000

1001
AcCmTransparency
1071
        0
  0
LAYER
  5
A80
330
2
100
AcDbSymbolTableRecord
100
AcDbLayerTableRecord
  2
top
 70
     0
 62
   140
  6
CONTINUOUS
370
    -3
390
F
347
21
348
0
1001
AcAecLayerStandard
1000

1000

1001
AcCmTransparency
1071
        0
  0
LAYER
  5
B70
330
2
100
AcDbSymbolTableRecord
100
AcDbLayerTableRecord
  2
mid
 70
     0
 62
     3
  6
CONTINUOUS
370
    -3
390
F
347
21
348
0
1001
AcAecLayerStandard
1000

1000

1001
AcCmTransparency
1071
        0
  0
ENDTAB
  0
TABLE
  2
STYLE
  5
3
330
0
100
AcDbSymbolTable
 70
     2
  0
STYLE
  5
55
330
3
100
AcDbSymbolTableRecord
100
AcDbTextStyleTableRecord
  2
Standard
 70
     0
 40
0.0
 41
1.0
 50
0.0
 71
     0
 42
0.2
  3
txt
  4

  0
STYLE
  5
59
330
3
100
AcDbSymbolTableRecord
100
AcDbTextStyleTableRecord
  2
Annotative
 70
     0
 40
0.0
 41
1.0
 50
0.0
 71
     0
 42
0.2
  3
txt
  4

1001
AcadAnnotative
1000
AnnotativeData
1002
{
1070
     1
1070
     1
1002
}
  0
ENDTAB
  0
TABLE
  2
VIEW
  5
6
330
0
100
AcDbSymbolTable
 70
     4
  0
ENDTAB
  0
TABLE
  2
UCS
  5
7
330
0
100
AcDbSymbolTable
 70
     0
  0
ENDTAB
  0
TABLE
  2
APPID
  5
9
330
0
100
AcDbSymbolTable
 70
     9
  0
APPID
  5
56
330
9
100
AcDbSymbolTableRecord
100
AcDbRegAppTableRecord
  2
ACAD
 70
     0
  0
APPID
  5
5D
330
9
100
AcDbSymbolTableRecord
100
AcDbRegAppTableRecord
  2
AcadAnnotative
 70
     0
  0
APPID
  5
2B3
330
9
100
AcDbSymbolTableRecord
100
AcDbRegAppTableRecord
  2
ACAD_EXEMPT_FROM_CAD_STANDARDS
 70
     0
  0
APPID
  5
401
330
9
100
AcDbSymbolTableRecord
100
AcDbRegAppTableRecord
  2
ACAD_DSTYLE_DIMRADIAL_EXTENSION
 70
     0
  0
APPID
  5
421
330
9
100
AcDbSymbolTableRecord
100
AcDbRegAppTableRecord
  2
ACAD_NAV_VCDISPLAY
 70
     0
  0
APPID
  5
A7E
330
9
100
AcDbSymbolTableRecord
100
AcDbRegAppTableRecord
  2
AcAecLayerStandard
 70
     0
  0
APPID
  5
A7F
330
9
100
AcDbSymbolTableRecord
100
AcDbRegAppTableRecord
  2
AcCmTransparency
 70
     0
  0
APPID
  5
B71
330
9
100
AcDbSymbolTableRecord
100
AcDbRegAppTableRecord
  2
ACAD_DSTYLE_DIMJAG
 70
     0
  0
APPID
  5
B72
330
9
100
AcDbSymbolTableRecord
100
AcDbRegAppTableRecord
  2
ACAD_DSTYLE_DIMTALN
 70
     0
  0
ENDTAB
  0
TABLE
  2
DIMSTYLE
  5
A
330
0
100
AcDbSymbolTable
 70
     4
100
AcDbDimStyleTable
 71
     1
340
57
  0
DIMSTYLE
105
57
330
A
100
AcDbSymbolTableRecord
100
AcDbDimStyleTableRecord
  2
Standard
 70
     0
340
55
  0
DIMSTYLE
105
58
330
A
100
AcDbSymbolTableRecord
100
AcDbDimStyleTableRecord
  2
Annotative
 70
     0
340
55
1001
AcadAnnotative
1000
AnnotativeData
1002
{
1070
     1
1070
     1
1002
}
  0
ENDTAB
  0
TABLE
  2
BLOCK_RECORD
  5
1
330
0
100
AcDbSymbolTable
 70
     7
  0
BLOCK_RECORD
  5
6F
102
{ACAD_XDICTIONARY
360
41E
102
}
330
1
100
AcDbSymbolTableRecord
100
AcDbBlockTableRecord
  2
*Model_Space
340
72
 70
     0
280
     1
281
     0
  0
BLOCK_RECORD
  5
6B
330
1
100
AcDbSymbolTableRecord
100
AcDbBlockTableRecord
  2
*Paper_Space
340
6E
 70
     0
280
     1
281
     0
  0
BLOCK_RECORD
  5
B56
102
{ACAD_XDICTIONARY
360
B5A
102
}
330
1
100
AcDbSymbolTableRecord
100
AcDbBlockTableRecord
  2
A$C361cae2e
340
0
 70
     4
280
     1
281
     0
  0
ENDTAB
  0
ENDSEC
  0
SECTION
  2
BLOCKS
  0
BLOCK
  5
70
330
6F
100
AcDbEntity
  8
0
100
AcDbBlockBegin
  2
*Model_Space
 70
     0
 10
0.0
 20
0.0
 30
0.0
  3
*Model_Space
  1

  0
ENDBLK
  5
71
330
6F
100
AcDbEntity
  8
0
100
AcDbBlockEnd
  0
BLOCK
  5
6C
330
6B
100
AcDbEntity
 67
     1
  8
0
100
AcDbBlockBegin
  2
*Paper_Space
 70
     0
 10
0.0
 20
0.0
 30
0.0
  3
*Paper_Space
  1

  0
ENDBLK
  5
6D
330
6B
100
AcDbEntity
 67
     1
  8
0
100
AcDbBlockEnd
  0
BLOCK
  5
B5C
330
B56
100
AcDbEntity
  8
0
100
AcDbBlockBegin
  2
A$C361cae2e
 70
     0
 10
0.0
 20
0.0
 30
0.0
  3
A$C361cae2e
  1

  0
CIRCLE
  5
B57
330
B56
100
AcDbEntity
  8
plate
  6
Continuous
100
AcDbCircle
 10
31.90680187575376
 20
3.5
 30
0.0
 40
1.0
  0
LWPOLYLINE
  5
B58
330
B56
100
AcDbEntity
  8
plate
  6
Continuous
100
AcDbPolyline
 90
       16
 70
     1
 43
0.0
 10
58.01360375150756
 20
1.335786437626907
 10
58.01360375150756
 20
0.75
 42
-0.4142135623730951
 10
57.26360375150756
 20
0.0
 10
6.54999999999999
 20
0.0
 42
-0.4142135623730961
 10
5.799999999999979
 20
0.75
 10
5.799999999999979
 20
1.335786437626907
 42
-0.4142135623730951
 10
6.549999999999979
 20
2.085786437626907
 10
29.01445247325048
 20
2.085786437626907
 10
29.01445247325048
 20
2.085786437626907
 42
-0.2329299081972674
 10
29.60905603075183
 20
1.792893218813404
 42
0.2329299081972716
 10
30.20365958825318
 20
1.5
 10
33.60994416325436
 20
1.5
 42
0.2329299081972716
 10
34.20454772075569
 20
1.792893218813404
 42
-0.2329299081972674
 10
34.79915127825706
 20
2.085786437626907
 10
34.79915127825706
 20
2.085786437626907
 10
57.26360375150756
 20
2.085786437626907
 42
-0.4142135623730951
  0
LWPOLYLINE
  5
B59
330
B56
100
AcDbEntity
  8
plate
  6
Continuous
100
AcDbPolyline
 90
       16
 70
     0
 43
0.0
 10
0.0
 20
0.5
 42
0.4142135623730951
 10
0.75
 20
1.25
 10
0.75
 20
3.414213562373006
 42
-0.4142135623730951
 10
2.25
 20
4.914213562373006
 10
29.01445247325048
 20
4.914213562373006
 10
29.01445247325048
 20
4.914213562373006
 42
0.2329299081972674
 10
29.60905603075183
 20
5.207106781186496
 42
-0.2329299081972716
 10
30.20365958825318
 20
5.5
 10
33.60994416325436
 20
5.5
 42
-0.2329299081972716
 10
34.20454772075569
 20
5.207106781186496
 42
0.2329299081972674
 10
34.79915127825706
 20
4.914213562373006
 10
34.79915127825706
 20
4.914213562373006
 10
61.56360375150753
 20
4.914213562373006
 42
-0.4142135623730951
 10
63.06360375150752
 20
3.414213562373006
 10
63.06360375150752
 20
1.25
 42
0.4142135623730951
 10
63.81360375150757
 20
0.5
  0
ENDBLK
  5
B5D
330
B56
100
AcDbEntity
  8
0
100
AcDbBlockEnd
  0
ENDSEC
  0
SECTION
  2
ENTITIES
  0
LWPOLYLINE
  5
D79
330
6F
100
AcDbEntity
  8
plate
100
AcDbPolyline
 90
       20
 70
     1
 43
0.0
 10
272.9995000000001
 20
95.46249999999989
 42
0.4142135623730951
 10
273.4995000000001
 20
95.96249999999994
 10
273.4995000000001
 20
97.46249999999989
 10
290.3755
 20
97.46249999999994
 10
290.3755
 20
95.96249999999994
 42
0.4142135623730951
 10
290.8755000000001
 20
95.46249999999989
 10
296.8755000000001
 20
95.46249999999989
 42
0.4142135623730951
 10
297.3755000000002
 20
95.96249999999994
 10
297.3755000000002
 20
97.46249999999994
 10
297.9625
 20
97.46249999999994
 42
0.4142135623730951
 10
298.4625000000002
 20
97.96249999999989
 10
298.4625000000002
 20
110.9624999999999
 42
0.4142135623730951
 10
297.9625
 20
111.4624999999999
 10
265.9125
 20
111.4624999999999
 42
0.4142135623730951
 10
265.4125
 20
110.9624999999999
 10
265.4125
 20
97.96249999999989
 42
0.4142135623730951
 10
265.9125
 20
97.46249999999994
 10
266.4995000000001
 20
97.46249999999989
 10
266.4995000000001
 20
95.96249999999994
 42
0.4142135623730951
 10
266.9995000000001
 20
95.46249999999989
  0
LWPOLYLINE
  5
D7A
330
6F
100
AcDbEntity
  8
plate
  6
Continuous
100
AcDbPolyline
 90
        8
 70
     1
 43
0.0
 10
280.2000000000001
 20
35.26249999999992
 42
0.4142135623730951
 10
279.7000000000001
 20
34.76249999999992
 10
279.7000000000001
 20
21.76249999999992
 42
0.4142135623730951
 10
280.2000000000001
 20
21.26249999999991
 10
295.5812500000001
 20
21.26249999999991
 42
0.4142135623730951
 10
296.0812500000002
 20
21.76249999999992
 10
296.0812500000002
 20
34.76249999999992
 42
0.4142135623730951
 10
295.5812500000001
 20
35.26249999999992
  0
LWPOLYLINE
  5
D7B
330
6F
100
AcDbEntity
  8
plate
  6
Continuous
100
AcDbPolyline
 90
        8
 70
     1
 43
0.0
 10
36.02500000000005
 20
35.26249999999992
 42
-0.4142135623730951
 10
36.52500000000005
 20
34.76249999999992
 10
36.52500000000005
 20
21.76249999999992
 42
-0.4142135623730951
 10
36.02500000000005
 20
21.26249999999991
 10
20.64375000000005
 20
21.26249999999991
 42
-0.4142135623730951
 10
20.14375000000005
 20
21.76249999999992
 10
20.14375000000005
 20
34.76249999999992
 42
-0.4142135623730951
 10
20.64375000000005
 20
35.26249999999992
  0
LWPOLYLINE
  5
D7C
330
6F
100
AcDbEntity
  8
plate
  6
Continuous
100
AcDbPolyline
 90
        8
 70
     1
 43
0.0
 10
20.64375000000005
 20
73.36249999999991
 42
0.4142135623730951
 10
20.14375000000005
 20
72.86249999999991
 10
20.14375000000005
 20
59.86249999999991
 42
0.4142135623730951
 10
20.64375000000005
 20
59.36249999999991
 10
38.40625000000004
 20
59.36249999999991
 42
0.4142135623730951
 10
38.90625000000004
 20
59.86249999999991
 10
38.90625000000004
 20
72.86249999999991
 42
0.4142135623730951
 10
38.40625000000004
 20
73.36249999999991
  0
LWPOLYLINE
  5
D7D
330
6F
100
AcDbEntity
  8
plate
100
AcDbPolyline
 90
        8
 70
     1
 43
0.0
 10
104.4625
 20
17.99999999999991
 10
104.4625
 20
31.99999999999991
 42
0.4142135623730951
 10
103.9625
 20
32.49999999999992
 10
97.9625
 20
32.49999999999992
 42
0.4142135623730951
 10
97.46250000000005
 20
31.99999999999991
 10
97.46250000000005
 20
17.99999999999991
 42
0.4142135623730951
 10
97.9625
 20
17.49999999999991
 10
103.9625
 20
17.49999999999991
 42
0.4142135623730951
  0
LWPOLYLINE
  5
D7E
330
6F
100
AcDbEntity
  8
plate
100
AcDbPolyline
 90
        8
 70
     1
 43
0.0
 10
218.7625000000001
 20
17.99999999999991
 10
218.7625000000001
 20
31.99999999999991
 42
0.4142135623730951
 10
218.2625000000001
 20
32.49999999999992
 10
212.2625000000001
 20
32.49999999999992
 42
0.4142135623730951
 10
211.7625
 20
31.99999999999991
 10
211.7625
 20
17.99999999999991
 42
0.4142135623730951
 10
212.2625000000001
 20
17.49999999999991
 10
218.2625000000001
 20
17.49999999999991
 42
0.4142135623730951
  0
LWPOLYLINE
  5
D7F
330
6F
100
AcDbEntity
  8
plate
100
AcDbPolyline
 90
        8
 70
     1
 43
0.0
 10
151.1125
 20
29.99999999999991
 10
151.1125
 20
16.99999999999991
 42
0.4142135623730951
 10
151.6125
 20
16.49999999999991
 10
164.6125
 20
16.49999999999991
 42
0.4142135623730951
 10
165.1125
 20
16.99999999999991
 10
165.1125
 20
29.99999999999991
 42
0.4142135623730951
 10
164.6125
 20
30.49999999999992
 10
151.6125
 20
30.49999999999992
 42
0.4142135623730951
  0
LWPOLYLINE
  5
D80
330
6F
100
AcDbEntity
  8
plate
100
AcDbPolyline
 90
        8
 70
     1
 43
0.0
 10
260.65
 20
34.76249999999992
 10
260.65
 20
21.76249999999992
 42
0.4142135623730951
 10
261.15
 20
21.26249999999991
 10
274.15
 20
21.26249999999991
 42
0.4142135623730951
 10
274.6500000000001
 20
21.76249999999992
 10
274.6500000000001
 20
34.76249999999992
 42
0.4142135623730951
 10
274.15
 20
35.26249999999992
 10
261.15
 20
35.26249999999992
 42
0.4142135623730951
  0
LWPOLYLINE
  5
D81
330
6F
100
AcDbEntity
  8
plate
100
AcDbPolyline
 90
        8
 70
     1
 43
0.0
 10
236.8375
 20
34.76249999999992
 10
236.8375
 20
21.76249999999992
 42
0.4142135623730951
 10
237.3375
 20
21.26249999999991
 10
250.3375000000001
 20
21.26249999999991
 42
0.4142135623730951
 10
250.8375
 20
21.76249999999992
 10
250.8375
 20
34.76249999999992
 42
0.4142135623730951
 10
250.3375000000001
 20
35.26249999999992
 10
237.3375
 20
35.26249999999992
 42
0.4142135623730951
  0
LWPOLYLINE
  5
D82
330
6F
100
AcDbEntity
  8
plate
100
AcDbPolyline
 90
        8
 70
     1
 43
0.0
 10
65.38750000000004
 20
34.76249999999992
 10
65.38750000000004
 20
21.76249999999992
 42
0.4142135623730951
 10
65.88750000000004
 20
21.26249999999991
 10
78.88750000000005
 20
21.26249999999991
 42
0.4142135623730951
 10
79.38750000000005
 20
21.76249999999992
 10
79.38750000000005
 20
34.76249999999992
 42
0.4142135623730951
 10
78.88750000000005
 20
35.26249999999992
 10
65.88750000000004
 20
35.26249999999992
 42
0.4142135623730951
  0
LWPOLYLINE
  5
D83
330
6F
100
AcDbEntity
  8
plate
100
AcDbPolyline
 90
        8
 70
     1
 43
0.0
 10
41.57500000000005
 20
34.76249999999992
 10
41.57500000000005
 20
21.76249999999992
 42
0.4142135623730951
 10
42.07500000000004
 20
21.26249999999991
 10
55.07500000000004
 20
21.26249999999991
 42
0.4142135623730951
 10
55.57500000000004
 20
21.76249999999992
 10
55.57500000000004
 20
34.76249999999992
 42
0.4142135623730951
 10
55.07500000000004
 20
35.26249999999992
 10
42.07500000000004
 20
35.26249999999992
 42
0.4142135623730951
  0
LWPOLYLINE
  5
D84
330
6F
100
AcDbEntity
  8
plate
100
AcDbPolyline
 90
        8
 70
     1
 43
0.0
 10
284.4625
 20
53.81249999999991
 10
284.4625
 20
40.81249999999992
 42
0.4142135623730951
 10
284.9625000000001
 20
40.31249999999991
 10
297.9625
 20
40.31249999999991
 42
0.4142135623730951
 10
298.4625000000002
 20
40.81249999999992
 10
298.4625000000002
 20
53.81249999999991
 42
0.4142135623730951
 10
297.9625
 20
54.31249999999991
 10
284.9625000000001
 20
54.31249999999991
 42
0.4142135623730951
  0
LWPOLYLINE
  5
D85
330
6F
100
AcDbEntity
  8
plate
100
AcDbPolyline
 90
        8
 70
     1
 43
0.0
 10
258.2687500000001
 20
53.81249999999991
 10
258.2687500000001
 20
40.81249999999992
 42
0.4142135623730951
 10
258.7687500000001
 20
40.31249999999991
 10
271.7687500000001
 20
40.31249999999991
 42
0.4142135623730951
 10
272.2687500000001
 20
40.81249999999992
 10
272.2687500000001
 20
53.81249999999991
 42
0.4142135623730951
 10
271.7687500000001
 20
54.31249999999991
 10
258.7687500000001
 20
54.31249999999991
 42
0.4142135623730951
  0
LWPOLYLINE
  5
D86
330
6F
100
AcDbEntity
  8
plate
100
AcDbPolyline
 90
        8
 70
     1
 43
0.0
 10
232.075
 20
53.81249999999991
 10
232.075
 20
40.81249999999992
 42
0.4142135623730951
 10
232.5750000000001
 20
40.31249999999991
 10
245.575
 20
40.31249999999991
 42
0.4142135623730951
 10
246.075
 20
40.81249999999992
 10
246.075
 20
53.81249999999991
 42
0.4142135623730951
 10
245.575
 20
54.31249999999991
 10
232.5750000000001
 20
54.31249999999991
 42
0.4142135623730951
  0
LWPOLYLINE
  5
D87
330
6F
100
AcDbEntity
  8
plate
100
AcDbPolyline
 90
        8
 70
     1
 43
0.0
 10
213.025
 20
53.81249999999991
 10
213.025
 20
40.81249999999992
 42
0.4142135623730951
 10
213.525
 20
40.31249999999991
 10
226.525
 20
40.31249999999991
 42
0.4142135623730951
 10
227.025
 20
40.81249999999992
 10
227.025
 20
53.81249999999991
 42
0.4142135623730951
 10
226.525
 20
54.31249999999991
 10
213.525
 20
54.31249999999991
 42
0.4142135623730951
  0
LWPOLYLINE
  5
D88
330
6F
100
AcDbEntity
  8
plate
100
AcDbPolyline
 90
        8
 70
     1
 43
0.0
 10
193.975
 20
53.81249999999991
 10
193.975
 20
40.81249999999992
 42
0.4142135623730951
 10
194.475
 20
40.31249999999991
 10
207.4750000000001
 20
40.31249999999991
 42
0.4142135623730951
 10
207.9750000000001
 20
40.81249999999992
 10
207.9750000000001
 20
53.81249999999991
 42
0.4142135623730951
 10
207.4750000000001
 20
54.31249999999991
 10
194.475
 20
54.31249999999991
 42
0.4142135623730951
  0
LWPOLYLINE
  5
D89
330
6F
100
AcDbEntity
  8
plate
100
AcDbPolyline
 90
        8
 70
     1
 43
0.0
 10
174.925
 20
53.81249999999991
 10
174.925
 20
40.81249999999992
 42
0.4142135623730951
 10
175.425
 20
40.31249999999991
 10
188.425
 20
40.31249999999991
 42
0.4142135623730951
 10
188.925
 20
40.81249999999992
 10
188.925
 20
53.81249999999991
 42
0.4142135623730951
 10
188.425
 20
54.31249999999991
 10
175.425
 20
54.31249999999991
 42
0.4142135623730951
  0
LWPOLYLINE
  5
D8A
330
6F
100
AcDbEntity
  8
plate
100
AcDbPolyline
 90
        8
 70
     1
 43
0.0
 10
155.875
 20
53.81249999999991
 10
155.875
 20
40.81249999999992
 42
0.4142135623730951
 10
156.375
 20
40.31249999999991
 10
169.375
 20
40.31249999999991
 42
0.4142135623730951
 10
169.875
 20
40.81249999999992
 10
169.875
 20
53.81249999999991
 42
0.4142135623730951
 10
169.375
 20
54.31249999999991
 10
156.375
 20
54.31249999999991
 42
0.4142135623730951
  0
LWPOLYLINE
  5
D8B
330
6F
100
AcDbEntity
  8
plate
100
AcDbPolyline
 90
        8
 70
     1
 43
0.0
 10
136.825
 20
53.81249999999991
 10
136.825
 20
40.81249999999992
 42
0.4142135623730951
 10
137.325
 20
40.31249999999991
 10
150.325
 20
40.31249999999991
 42
0.4142135623730951
 10
150.825
 20
40.81249999999992
 10
150.825
 20
53.81249999999991
 42
0.4142135623730951
 10
150.325
 20
54.31249999999991
 10
137.325
 20
54.31249999999991
 42
0.4142135623730951
  0
LWPOLYLINE
  5
D8C
330
6F
100
AcDbEntity
  8
plate
100
AcDbPolyline
 90
        8
 70
     1
 43
0.0
 10
117.775
 20
53.81249999999991
 10
117.775
 20
40.81249999999992
 42
0.4142135623730951
 10
118.275
 20
40.31249999999991
 10
131.275
 20
40.31249999999991
 42
0.4142135623730951
 10
131.775
 20
40.81249999999992
 10
131.775
 20
53.81249999999991
 42
0.4142135623730951
 10
131.275
 20
54.31249999999991
 10
118.275
 20
54.31249999999991
 42
0.4142135623730951
  0
LWPOLYLINE
  5
D8D
330
6F
100
AcDbEntity
  8
plate
100
AcDbPolyline
 90
        8
 70
     1
 43
0.0
 10
98.72500000000002
 20
53.81249999999991
 10
98.72500000000002
 20
40.81249999999992
 42
0.4142135623730951
 10
99.22500000000006
 20
40.31249999999991
 10
112.225
 20
40.31249999999991
 42
0.4142135623730951
 10
112.725
 20
40.81249999999992
 10
112.725
 20
53.81249999999991
 42
0.4142135623730951
 10
112.225
 20
54.31249999999991
 10
99.22500000000006
 20
54.31249999999991
 42
0.4142135623730951
  0
LWPOLYLINE
  5
D8E
330
6F
100
AcDbEntity
  8
plate
100
AcDbPolyline
 90
        8
 70
     1
 43
0.0
 10
79.67500000000002
 20
53.81249999999991
 10
79.67500000000002
 20
40.81249999999992
 42
0.4142135623730951
 10
80.17500000000003
 20
40.31249999999991
 10
93.17500000000002
 20
40.31249999999991
 42
0.4142135623730951
 10
93.67500000000003
 20
40.81249999999992
 10
93.67500000000003
 20
53.81249999999991
 42
0.4142135623730951
 10
93.17500000000002
 20
54.31249999999991
 10
80.17500000000003
 20
54.31249999999991
 42
0.4142135623730951
  0
LWPOLYLINE
  5
D8F
330
6F
100
AcDbEntity
  8
plate
100
AcDbPolyline
 90
        8
 70
     1
 43
0.0
 10
60.62500000000004
 20
53.81249999999991
 10
60.62500000000004
 20
40.81249999999992
 42
0.4142135623730951
 10
61.12500000000004
 20
40.31249999999991
 10
74.12500000000005
 20
40.31249999999991
 42
0.4142135623730951
 10
74.62500000000005
 20
40.81249999999992
 10
74.62500000000005
 20
53.81249999999991
 42
0.4142135623730951
 10
74.12500000000005
 20
54.31249999999991
 10
61.12500000000004
 20
54.31249999999991
 42
0.4142135623730951
  0
LWPOLYLINE
  5
D90
330
6F
100
AcDbEntity
  8
plate
100
AcDbPolyline
 90
        8
 70
     1
 43
0.0
 10
45.10675000000005
 20
52.81249999999992
 10
45.10675000000005
 20
38.81249999999992
 42
0.4142135623730951
 10
45.60675000000005
 20
38.31249999999992
 10
51.60675000000004
 20
38.31249999999992
 42
0.4142135623730951
 10
52.10675000000005
 20
38.81249999999992
 10
52.10675000000005
 20
52.81249999999992
 42
0.4142135623730951
 10
51.60675000000004
 20
53.31249999999992
 10
45.60675000000005
 20
53.31249999999992
 42
0.4142135623730951
  0
LWPOLYLINE
  5
D91
330
6F
100
AcDbEntity
  8
plate
100
AcDbPolyline
 90
        8
 70
     1
 43
0.0
 10
21.23075000000004
 20
52.81249999999992
 10
21.23075000000004
 20
38.81249999999992
 42
0.4142135623730951
 10
21.73075000000004
 20
38.31249999999992
 10
27.73075000000005
 20
38.31249999999992
 42
0.4142135623730951
 10
28.23075000000005
 20
38.81249999999992
 10
28.23075000000005
 20
52.81249999999992
 42
0.4142135623730951
 10
27.73075000000005
 20
53.31249999999992
 10
21.73075000000004
 20
53.31249999999992
 42
0.4142135623730951
  0
LWPOLYLINE
  5
D92
330
6F
100
AcDbEntity
  8
plate
100
AcDbPolyline
 90
        8
 70
     1
 43
0.0
 10
29.66875000000005
 20
53.81249999999991
 10
29.66875000000005
 20
40.81249999999992
 42
0.4142135623730951
 10
30.16875000000005
 20
40.31249999999991
 10
43.16875000000004
 20
40.31249999999991
 42
0.4142135623730951
 10
43.66875000000004
 20
40.81249999999992
 10
43.66875000000004
 20
53.81249999999991
 42
0.4142135623730951
 10
43.16875000000004
 20
54.31249999999991
 10
30.16875000000005
 20
54.31249999999991
 42
0.4142135623730951
  0
LWPOLYLINE
  5
D93
330
6F
100
AcDbEntity
  8
plate
100
AcDbPolyline
 90
        8
 70
     1
 43
0.0
 10
287.99425
 20
71.86249999999991
 10
287.99425
 20
57.86249999999991
 42
0.4142135623730951
 10
288.49425
 20
57.36249999999991
 10
294.49425
 20
57.36249999999991
 42
0.4142135623730951
 10
294.99425
 20
57.86249999999991
 10
294.99425
 20
71.86249999999991
 42
0.4142135623730951
 10
294.49425
 20
72.36249999999991
 10
288.49425
 20
72.36249999999991
 42
0.4142135623730951
  0
LWPOLYLINE
  5
D94
330
6F
100
AcDbEntity
  8
plate
100
AcDbPolyline
 90
        8
 70
     1
 43
0.0
 10
264.1182500000001
 20
71.86249999999991
 10
264.1182500000001
 20
57.86249999999991
 42
0.4142135623730951
 10
264.61825
 20
57.36249999999991
 10
270.6182500000001
 20
57.36249999999991
 42
0.4142135623730951
 10
271.11825
 20
57.86249999999991
 10
271.11825
 20
71.86249999999991
 42
0.4142135623730951
 10
270.6182500000001
 20
72.36249999999991
 10
264.61825
 20
72.36249999999991
 42
0.4142135623730951
  0
LWPOLYLINE
  5
D95
330
6F
100
AcDbEntity
  8
plate
100
AcDbPolyline
 90
        8
 70
     1
 43
0.0
 10
272.55625
 20
72.86249999999991
 10
272.55625
 20
59.86249999999991
 42
0.4142135623730951
 10
273.0562500000001
 20
59.36249999999991
 10
286.05625
 20
59.36249999999991
 42
0.4142135623730951
 10
286.55625
 20
59.86249999999991
 10
286.55625
 20
72.86249999999991
 42
0.4142135623730951
 10
286.05625
 20
73.36249999999991
 10
273.0562500000001
 20
73.36249999999991
 42
0.4142135623730951
  0
LWPOLYLINE
  5
D96
330
6F
100
AcDbEntity
  8
plate
100
AcDbPolyline
 90
        8
 70
     1
 43
0.0
 10
241.6
 20
72.86249999999991
 10
241.6
 20
59.86249999999991
 42
0.4142135623730951
 10
242.1000000000001
 20
59.36249999999991
 10
255.1000000000001
 20
59.36249999999991
 42
0.4142135623730951
 10
255.6
 20
59.86249999999991
 10
255.6
 20
72.86249999999991
 42
0.4142135623730951
 10
255.1000000000001
 20
73.36249999999991
 10
242.1000000000001
 20
73.36249999999991
 42
0.4142135623730951
  0
LWPOLYLINE
  5
D97
330
6F
100
AcDbEntity
  8
plate
100
AcDbPolyline
 90
        8
 70
     1
 43
0.0
 10
222.55
 20
72.86249999999991
 10
222.55
 20
59.86249999999991
 42
0.4142135623730951
 10
223.0500000000001
 20
59.36249999999991
 10
236.05
 20
59.36249999999991
 42
0.4142135623730951
 10
236.55
 20
59.86249999999991
 10
236.55
 20
72.86249999999991
 42
0.4142135623730951
 10
236.05
 20
73.36249999999991
 10
223.0500000000001
 20
73.36249999999991
 42
0.4142135623730951
  0
LWPOLYLINE
  5
D98
330
6F
100
AcDbEntity
  8
plate
100
AcDbPolyline
 90
        8
 70
     1
 43
0.0
 10
203.5000000000001
 20
72.86249999999991
 10
203.5000000000001
 20
59.86249999999991
 42
0.4142135623730951
 10
204.0
 20
59.36249999999991
 10
217.0000000000001
 20
59.36249999999991
 42
0.4142135623730951
 10
217.5000000000001
 20
59.86249999999991
 10
217.5000000000001
 20
72.86249999999991
 42
0.4142135623730951
 10
217.0000000000001
 20
73.36249999999991
 10
204.0
 20
73.36249999999991
 42
0.4142135623730951
  0
LWPOLYLINE
  5
D99
330
6F
100
AcDbEntity
  8
plate
100
AcDbPolyline
 90
        8
 70
     1
 43
0.0
 10
184.45
 20
72.86249999999991
 10
184.45
 20
59.86249999999991
 42
0.4142135623730951
 10
184.95
 20
59.36249999999991
 10
197.95
 20
59.36249999999991
 42
0.4142135623730951
 10
198.45
 20
59.86249999999991
 10
198.45
 20
72.86249999999991
 42
0.4142135623730951
 10
197.95
 20
73.36249999999991
 10
184.95
 20
73.36249999999991
 42
0.4142135623730951
  0
LWPOLYLINE
  5
D9A
330
6F
100
AcDbEntity
  8
plate
100
AcDbPolyline
 90
        8
 70
     1
 43
0.0
 10
165.4
 20
72.86249999999991
 10
165.4
 20
59.86249999999991
 42
0.4142135623730951
 10
165.9
 20
59.36249999999991
 10
178.9
 20
59.36249999999991
 42
0.4142135623730951
 10
179.4
 20
59.86249999999991
 10
179.4
 20
72.86249999999991
 42
0.4142135623730951
 10
178.9
 20
73.36249999999991
 10
165.9
 20
73.36249999999991
 42
0.4142135623730951
  0
LWPOLYLINE
  5
D9B
330
6F
100
AcDbEntity
  8
plate
100
AcDbPolyline
 90
        8
 70
     1
 43
0.0
 10
146.35
 20
72.86249999999991
 10
146.35
 20
59.86249999999991
 42
0.4142135623730951
 10
146.85
 20
59.36249999999991
 10
159.85
 20
59.36249999999991
 42
0.4142135623730951
 10
160.35
 20
59.86249999999991
 10
160.35
 20
72.86249999999991
 42
0.4142135623730951
 10
159.85
 20
73.36249999999991
 10
146.85
 20
73.36249999999991
 42
0.4142135623730951
  0
LWPOLYLINE
  5
D9C
330
6F
100
AcDbEntity
  8
plate
100
AcDbPolyline
 90
        8
 70
     1
 43
0.0
 10
127.3
 20
72.86249999999991
 10
127.3
 20
59.86249999999991
 42
0.4142135623730951
 10
127.8
 20
59.36249999999991
 10
140.8
 20
59.36249999999991
 42
0.4142135623730951
 10
141.3
 20
59.86249999999991
 10
141.3
 20
72.86249999999991
 42
0.4142135623730951
 10
140.8
 20
73.36249999999991
 10
127.8
 20
73.36249999999991
 42
0.4142135623730951
  0
LWPOLYLINE
  5
D9D
330
6F
100
AcDbEntity
  8
plate
100
AcDbPolyline
 90
        8
 70
     1
 43
0.0
 10
108.25
 20
72.86249999999991
 10
108.25
 20
59.86249999999991
 42
0.4142135623730951
 10
108.75
 20
59.36249999999991
 10
121.75
 20
59.36249999999991
 42
0.4142135623730951
 10
122.25
 20
59.86249999999991
 10
122.25
 20
72.86249999999991
 42
0.4142135623730951
 10
121.75
 20
73.36249999999991
 10
108.75
 20
73.36249999999991
 42
0.4142135623730951
  0
LWPOLYLINE
  5
D9E
330
6F
100
AcDbEntity
  8
plate
100
AcDbPolyline
 90
        8
 70
     1
 43
0.0
 10
89.20000000000005
 20
72.86249999999991
 10
89.20000000000005
 20
59.86249999999991
 42
0.4142135623730951
 10
89.70000000000004
 20
59.36249999999991
 10
102.7
 20
59.36249999999991
 42
0.4142135623730951
 10
103.2
 20
59.86249999999991
 10
103.2
 20
72.86249999999991
 42
0.4142135623730951
 10
102.7
 20
73.36249999999991
 10
89.70000000000004
 20
73.36249999999991
 42
0.4142135623730951
  0
LWPOLYLINE
  5
D9F
330
6F
100
AcDbEntity
  8
plate
100
AcDbPolyline
 90
        8
 70
     1
 43
0.0
 10
70.15000000000005
 20
72.86249999999991
 10
70.15000000000005
 20
59.86249999999991
 42
0.4142135623730951
 10
70.65000000000004
 20
59.36249999999991
 10
83.65000000000001
 20
59.36249999999991
 42
0.4142135623730951
 10
84.15000000000002
 20
59.86249999999991
 10
84.15000000000002
 20
72.86249999999991
 42
0.4142135623730951
 10
83.65000000000001
 20
73.36249999999991
 10
70.65000000000004
 20
73.36249999999991
 42
0.4142135623730951
  0
LWPOLYLINE
  5
DA0
330
6F
100
AcDbEntity
  8
plate
100
AcDbPolyline
 90
        8
 70
     1
 43
0.0
 10
51.10000000000004
 20
72.86249999999991
 10
51.10000000000004
 20
59.86249999999991
 42
0.4142135623730951
 10
51.60000000000004
 20
59.36249999999991
 10
64.60000000000005
 20
59.36249999999991
 42
0.4142135623730951
 10
65.10000000000004
 20
59.86249999999991
 10
65.10000000000004
 20
72.86249999999991
 42
0.4142135623730951
 10
64.60000000000005
 20
73.36249999999991
 10
51.60000000000004
 20
73.36249999999991
 42
0.4142135623730951
  0
LWPOLYLINE
  5
DA1
330
6F
100
AcDbEntity
  8
plate
100
AcDbPolyline
 90
        8
 70
     1
 43
0.0
 10
279.7000000000001
 20
91.91249999999989
 10
279.7000000000001
 20
78.91249999999991
 42
0.4142135623730951
 10
280.2000000000001
 20
78.41249999999991
 10
293.2
 20
78.41249999999991
 42
0.4142135623730951
 10
293.7000000000001
 20
78.91249999999991
 10
293.7000000000001
 20
91.91249999999989
 42
0.4142135623730951
 10
293.2
 20
92.4124999999999
 10
280.2000000000001
 20
92.4124999999999
 42
0.4142135623730951
  0
LWPOLYLINE
  5
DA2
330
6F
100
AcDbEntity
  8
plate
100
AcDbPolyline
 90
        8
 70
     1
 43
0.0
 10
255.8875
 20
91.91249999999989
 10
255.8875
 20
78.91249999999991
 42
0.4142135623730951
 10
256.3875
 20
78.41249999999991
 10
269.3875000000001
 20
78.41249999999991
 42
0.4142135623730951
 10
269.8875000000001
 20
78.91249999999991
 10
269.8875000000001
 20
91.91249999999989
 42
0.4142135623730951
 10
269.3875000000001
 20
92.4124999999999
 10
256.3875
 20
92.4124999999999
 42
0.4142135623730951
  0
LWPOLYLINE
  5
DA3
330
6F
100
AcDbEntity
  8
plate
100
AcDbPolyline
 90
        8
 70
     1
 43
0.0
 10
236.8375
 20
91.91249999999989
 10
236.8375
 20
78.91249999999991
 42
0.4142135623730951
 10
237.3375
 20
78.41249999999991
 10
250.3375000000001
 20
78.41249999999991
 42
0.4142135623730951
 10
250.8375
 20
78.91249999999991
 10
250.8375
 20
91.91249999999989
 42
0.4142135623730951
 10
250.3375000000001
 20
92.4124999999999
 10
237.3375
 20
92.4124999999999
 42
0.4142135623730951
  0
LWPOLYLINE
  5
DA4
330
6F
100
AcDbEntity
  8
plate
100
AcDbPolyline
 90
        8
 70
     1
 43
0.0
 10
217.7875000000001
 20
91.91249999999989
 10
217.7875000000001
 20
78.91249999999991
 42
0.4142135623730951
 10
218.2875000000001
 20
78.41249999999991
 10
231.2875
 20
78.41249999999991
 42
0.4142135623730951
 10
231.7875
 20
78.91249999999991
 10
231.7875
 20
91.91249999999989
 42
0.4142135623730951
 10
231.2875
 20
92.4124999999999
 10
218.2875000000001
 20
92.4124999999999
 42
0.4142135623730951
  0
LWPOLYLINE
  5
DA5
330
6F
100
AcDbEntity
  8
plate
100
AcDbPolyline
 90
        8
 70
     1
 43
0.0
 10
198.7375
 20
91.91249999999989
 10
198.7375
 20
78.91249999999991
 42
0.4142135623730951
 10
199.2375
 20
78.41249999999991
 10
212.2375
 20
78.41249999999991
 42
0.4142135623730951
 10
212.7375
 20
78.91249999999991
 10
212.7375
 20
91.91249999999989
 42
0.4142135623730951
 10
212.2375
 20
92.4124999999999
 10
199.2375
 20
92.4124999999999
 42
0.4142135623730951
  0
LWPOLYLINE
  5
DA6
330
6F
100
AcDbEntity
  8
plate
100
AcDbPolyline
 90
        8
 70
     1
 43
0.0
 10
179.6875
 20
91.91249999999989
 10
179.6875
 20
78.91249999999991
 42
0.4142135623730951
 10
180.1875
 20
78.41249999999991
 10
193.1875
 20
78.41249999999991
 42
0.4142135623730951
 10
193.6875
 20
78.91249999999991
 10
193.6875
 20
91.91249999999989
 42
0.4142135623730951
 10
193.1875
 20
92.4124999999999
 10
180.1875
 20
92.4124999999999
 42
0.4142135623730951
  0
LWPOLYLINE
  5
DA7
330
6F
100
AcDbEntity
  8
plate
100
AcDbPolyline
 90
        8
 70
     1
 43
0.0
 10
160.6375
 20
91.91249999999989
 10
160.6375
 20
78.91249999999991
 42
0.4142135623730951
 10
161.1375
 20
78.41249999999991
 10
174.1375
 20
78.41249999999991
 42
0.4142135623730951
 10
174.6375
 20
78.91249999999991
 10
174.6375
 20
91.91249999999989
 42
0.4142135623730951
 10
174.1375
 20
92.4124999999999
 10
161.1375
 20
92.4124999999999
 42
0.4142135623730951
  0
LWPOLYLINE
  5
DA8
330
6F
100
AcDbEntity
  8
plate
100
AcDbPolyline
 90
        8
 70
     1
 43
0.0
 10
141.5875
 20
91.91249999999989
 10
141.5875
 20
78.91249999999991
 42
0.4142135623730951
 10
142.0875
 20
78.41249999999991
 10
155.0875
 20
78.41249999999991
 42
0.4142135623730951
 10
155.5875
 20
78.91249999999991
 10
155.5875
 20
91.91249999999989
 42
0.4142135623730951
 10
155.0875
 20
92.4124999999999
 10
142.0875
 20
92.4124999999999
 42
0.4142135623730951
  0
LWPOLYLINE
  5
DA9
330
6F
100
AcDbEntity
  8
plate
100
AcDbPolyline
 90
        8
 70
     1
 43
0.0
 10
122.5375
 20
91.91249999999989
 10
122.5375
 20
78.91249999999991
 42
0.4142135623730951
 10
123.0375
 20
78.41249999999991
 10
136.0375
 20
78.41249999999991
 42
0.4142135623730951
 10
136.5374999999999
 20
78.91249999999991
 10
136.5374999999999
 20
91.91249999999989
 42
0.4142135623730951
 10
136.0375
 20
92.4124999999999
 10
123.0375
 20
92.4124999999999
 42
0.4142135623730951
  0
LWPOLYLINE
  5
DAA
330
6F
100
AcDbEntity
  8
plate
100
AcDbPolyline
 90
        8
 70
     1
 43
0.0
 10
103.4875
 20
91.91249999999989
 10
103.4875
 20
78.91249999999991
 42
0.4142135623730951
 10
103.9875
 20
78.41249999999991
 10
116.9875
 20
78.41249999999991
 42
0.4142135623730951
 10
117.4875
 20
78.91249999999991
 10
117.4875
 20
91.91249999999989
 42
0.4142135623730951
 10
116.9875
 20
92.4124999999999
 10
103.9875
 20
92.4124999999999
 42
0.4142135623730951
  0
LWPOLYLINE
  5
DAB
330
6F
100
AcDbEntity
  8
plate
100
AcDbPolyline
 90
        8
 70
     1
 43
0.0
 10
84.43750000000003
 20
91.91249999999989
 10
84.43750000000003
 20
78.91249999999991
 42
0.4142135623730951
 10
84.93750000000003
 20
78.41249999999991
 10
97.93750000000004
 20
78.41249999999991
 42
0.4142135623730951
 10
98.43750000000005
 20
78.91249999999991
 10
98.43750000000005
 20
91.91249999999989
 42
0.4142135623730951
 10
97.93750000000004
 20
92.4124999999999
 10
84.93750000000003
 20
92.4124999999999
 42
0.4142135623730951
  0
LWPOLYLINE
  5
DAC
330
6F
100
AcDbEntity
  8
plate
100
AcDbPolyline
 90
        8
 70
     1
 43
0.0
 10
65.38750000000004
 20
91.91249999999989
 10
65.38750000000004
 20
78.91249999999991
 42
0.4142135623730951
 10
65.88750000000004
 20
78.41249999999991
 10
78.88750000000005
 20
78.41249999999991
 42
0.4142135623730951
 10
79.38750000000005
 20
78.91249999999991
 10
79.38750000000005
 20
91.91249999999989
 42
0.4142135623730951
 10
78.88750000000005
 20
92.4124999999999
 10
65.88750000000004
 20
92.4124999999999
 42
0.4142135623730951
  0
LWPOLYLINE
  5
DAD
330
6F
100
AcDbEntity
  8
plate
100
AcDbPolyline
 90
        8
 70
     1
 43
0.0
 10
46.33750000000005
 20
91.91249999999989
 10
46.33750000000005
 20
78.91249999999991
 42
0.4142135623730951
 10
46.83750000000005
 20
78.41249999999991
 10
59.83750000000005
 20
78.41249999999991
 42
0.4142135623730951
 10
60.33750000000004
 20
78.91249999999991
 10
60.33750000000004
 20
91.91249999999989
 42
0.4142135623730951
 10
59.83750000000005
 20
92.4124999999999
 10
46.83750000000005
 20
92.4124999999999
 42
0.4142135623730951
  0
LWPOLYLINE
  5
DAE
330
6F
100
AcDbEntity
  8
plate
100
AcDbPolyline
 90
        8
 70
     1
 43
0.0
 10
22.52500000000004
 20
91.91249999999989
 10
22.52500000000004
 20
78.91249999999991
 42
0.4142135623730951
 10
23.02500000000005
 20
78.41249999999991
 10
36.02500000000005
 20
78.41249999999991
 42
0.4142135623730951
 10
36.52500000000005
 20
78.91249999999991
 10
36.52500000000005
 20
91.91249999999989
 42
0.4142135623730951
 10
36.02500000000005
 20
92.4124999999999
 10
23.02500000000005
 20
92.4124999999999
 42
0.4142135623730951
  0
LWPOLYLINE
  5
DAF
330
6F
100
AcDbEntity
  8
plate
100
AcDbPolyline
 90
        8
 70
     1
 43
0.0
 10
246.3625
 20
110.9624999999999
 10
246.3625
 20
97.96249999999989
 42
0.4142135623730951
 10
246.8625
 20
97.46249999999994
 10
259.8625000000001
 20
97.46249999999994
 42
0.4142135623730951
 10
260.3625
 20
97.96249999999989
 10
260.3625
 20
110.9624999999999
 42
0.4142135623730951
 10
259.8625000000001
 20
111.4624999999999
 10
246.8625
 20
111.4624999999999
 42
0.4142135623730951
  0
LWPOLYLINE
  5
DB0
330
6F
100
AcDbEntity
  8
plate
100
AcDbPolyline
 90
        8
 70
     1
 43
0.0
 10
227.3125000000001
 20
110.9624999999999
 10
227.3125000000001
 20
97.96249999999989
 42
0.4142135623730951
 10
227.8125000000001
 20
97.46249999999994
 10
240.8125
 20
97.46249999999994
 42
0.4142135623730951
 10
241.3125
 20
97.96249999999989
 10
241.3125
 20
110.9624999999999
 42
0.4142135623730951
 10
240.8125
 20
111.4624999999999
 10
227.8125000000001
 20
111.4624999999999
 42
0.4142135623730951
  0
LWPOLYLINE
  5
DB1
330
6F
100
AcDbEntity
  8
plate
100
AcDbPolyline
 90
        8
 70
     1
 43
0.0
 10
208.2625000000001
 20
110.9624999999999
 10
208.2625000000001
 20
97.96249999999989
 42
0.4142135623730951
 10
208.7625
 20
97.46249999999994
 10
221.7625
 20
97.46249999999994
 42
0.4142135623730951
 10
222.2625
 20
97.96249999999989
 10
222.2625
 20
110.9624999999999
 42
0.4142135623730951
 10
221.7625
 20
111.4624999999999
 10
208.7625
 20
111.4624999999999
 42
0.4142135623730951
  0
LWPOLYLINE
  5
DB2
330
6F
100
AcDbEntity
  8
plate
100
AcDbPolyline
 90
        8
 70
     1
 43
0.0
 10
189.2125
 20
110.9624999999999
 10
189.2125
 20
97.96249999999989
 42
0.4142135623730951
 10
189.7125
 20
97.46249999999994
 10
202.7125
 20
97.46249999999994
 42
0.4142135623730951
 10
203.2125
 20
97.96249999999989
 10
203.2125
 20
110.9624999999999
 42
0.4142135623730951
 10
202.7125
 20
111.4624999999999
 10
189.7125
 20
111.4624999999999
 42
0.4142135623730951
  0
LWPOLYLINE
  5
DB3
330
6F
100
AcDbEntity
  8
plate
100
AcDbPolyline
 90
        8
 70
     1
 43
0.0
 10
170.1625
 20
110.9624999999999
 10
170.1625
 20
97.96249999999989
 42
0.4142135623730951
 10
170.6625
 20
97.46249999999994
 10
183.6625
 20
97.46249999999994
 42
0.4142135623730951
 10
184.1625
 20
97.96249999999989
 10
184.1625
 20
110.9624999999999
 42
0.4142135623730951
 10
183.6625
 20
111.4624999999999
 10
170.6625
 20
111.4624999999999
 42
0.4142135623730951
  0
LWPOLYLINE
  5
DB4
330
6F
100
AcDbEntity
  8
plate
100
AcDbPolyline
 90
        8
 70
     1
 43
0.0
 10
151.1125
 20
110.9624999999999
 10
151.1125
 20
97.96249999999989
 42
0.4142135623730951
 10
151.6125
 20
97.46249999999994
 10
164.6125
 20
97.46249999999994
 42
0.4142135623730951
 10
165.1125
 20
97.96249999999989
 10
165.1125
 20
110.9624999999999
 42
0.4142135623730951
 10
164.6125
 20
111.4624999999999
 10
151.6125
 20
111.4624999999999
 42
0.4142135623730951
  0
LWPOLYLINE
  5
DB5
330
6F
100
AcDbEntity
  8
plate
100
AcDbPolyline
 90
        8
 70
     1
 43
0.0
 10
132.0625
 20
110.9624999999999
 10
132.0625
 20
97.96249999999989
 42
0.4142135623730951
 10
132.5625
 20
97.46249999999994
 10
145.5625
 20
97.46249999999994
 42
0.4142135623730951
 10
146.0625
 20
97.96249999999989
 10
146.0625
 20
110.9624999999999
 42
0.4142135623730951
 10
145.5625
 20
111.4624999999999
 10
132.5625
 20
111.4624999999999
 42
0.4142135623730951
  0
LWPOLYLINE
  5
DB6
330
6F
100
AcDbEntity
  8
plate
100
AcDbPolyline
 90
        8
 70
     1
 43
0.0
 10
113.0125
 20
110.9624999999999
 10
113.0125
 20
97.96249999999989
 42
0.4142135623730951
 10
113.5125
 20
97.46249999999994
 10
126.5125
 20
97.46249999999994
 42
0.4142135623730951
 10
127.0125
 20
97.96249999999989
 10
127.0125
 20
110.9624999999999
 42
0.4142135623730951
 10
126.5125
 20
111.4624999999999
 10
113.5125
 20
111.4624999999999
 42
0.4142135623730951
  0
LWPOLYLINE
  5
DB7
330
6F
100
AcDbEntity
  8
plate
100
AcDbPolyline
 90
        8
 70
     1
 43
0.0
 10
93.96250000000001
 20
110.9624999999999
 10
93.96250000000001
 20
97.96249999999989
 42
0.4142135623730951
 10
94.4625
 20
97.46249999999994
 10
107.4625
 20
97.46249999999994
 42
0.4142135623730951
 10
107.9625
 20
97.96249999999989
 10
107.9625
 20
110.9624999999999
 42
0.4142135623730951
 10
107.4625
 20
111.4624999999999
 10
94.4625
 20
111.4624999999999
 42
0.4142135623730951
  0
LWPOLYLINE
  5
DB8
330
6F
100
AcDbEntity
  8
plate
100
AcDbPolyline
 90
        8
 70
     1
 43
0.0
 10
74.91250000000005
 20
110.9624999999999
 10
74.91250000000005
 20
97.96249999999989
 42
0.4142135623730951
 10
75.41250000000005
 20
97.46249999999994
 10
88.41250000000002
 20
97.46249999999994
 42
0.4142135623730951
 10
88.91250000000002
 20
97.96249999999989
 10
88.91250000000002
 20
110.9624999999999
 42
0.4142135623730951
 10
88.41250000000002
 20
111.4624999999999
 10
75.41250000000005
 20
111.4624999999999
 42
0.4142135623730951
  0
LWPOLYLINE
  5
DB9
330
6F
100
AcDbEntity
  8
plate
100
AcDbPolyline
 90
        8
 70
     1
 43
0.0
 10
55.86250000000005
 20
110.9624999999999
 10
55.86250000000005
 20
97.96249999999989
 42
0.4142135623730951
 10
56.36250000000004
 20
97.46249999999994
 10
69.36250000000004
 20
97.46249999999994
 42
0.4142135623730951
 10
69.86250000000004
 20
97.96249999999989
 10
69.86250000000004
 20
110.9624999999999
 42
0.4142135623730951
 10
69.36250000000004
 20
111.4624999999999
 10
56.36250000000004
 20
111.4624999999999
 42
0.4142135623730951
  0
LWPOLYLINE
  5
DBA
330
6F
100
AcDbEntity
  8
plate
100
AcDbPolyline
 90
        8
 70
     1
 43
0.0
 10
36.81250000000004
 20
110.9624999999999
 10
36.81250000000004
 20
97.96249999999989
 42
0.4142135623730951
 10
37.31250000000005
 20
97.46249999999994
 10
50.31250000000004
 20
97.46249999999994
 42
0.4142135623730951
 10
50.81250000000004
 20
97.96249999999989
 10
50.81250000000004
 20
110.9624999999999
 42
0.4142135623730951
 10
50.31250000000004
 20
111.4624999999999
 10
37.31250000000005
 20
111.4624999999999
 42
0.4142135623730951
  0
LWPOLYLINE
  5
DBB
330
6F
100
AcDbEntity
  8
plate
100
AcDbPolyline
 90
        8
 70
     1
 43
0.0
 10
17.76250000000004
 20
110.9624999999999
 10
17.76250000000004
 20
97.96249999999989
 42
0.4142135623730951
 10
18.26250000000004
 20
97.46249999999994
 10
31.26250000000005
 20
97.46249999999994
 42
0.4142135623730951
 10
31.76250000000005
 20
97.96249999999989
 10
31.76250000000005
 20
110.9624999999999
 42
0.4142135623730951
 10
31.26250000000005
 20
111.4624999999999
 10
18.26250000000004
 20
111.4624999999999
 42
0.4142135623730951
  0
LWPOLYLINE
  5
DBC
330
6F
100
AcDbEntity
  8
plate
  6
Continuous
100
AcDbPolyline
 90
        8
 70
     1
 43
0.0
 10
44.45625000000005
 20
59.36249999999991
 10
45.55000000000005
 20
59.36249999999991
 42
0.4142135623730951
 10
46.05000000000004
 20
59.86249999999991
 10
46.05000000000004
 20
72.86249999999991
 42
0.4142135623730951
 10
45.55000000000005
 20
73.36249999999991
 10
44.45625000000005
 20
73.36249999999991
 42
0.4142135623730951
 10
43.95625000000003
 20
72.86249999999991
 10
43.95625000000003
 20
59.86249999999991
 42
0.4142135623730951
  0
LWPOLYLINE
  5
DBD
330
6F
100
AcDbEntity
  8
plate
  6
Continuous
100
AcDbPolyline
 90
        8
 70
     1
 43
0.0
 10
251.6250000000001
 20
40.31249999999991
 10
252.7187500000001
 20
40.31249999999991
 42
0.4142135623730951
 10
253.21875
 20
40.81249999999992
 10
253.21875
 20
53.81249999999991
 42
0.4142135623730951
 10
252.7187500000001
 20
54.31249999999991
 10
251.6250000000001
 20
54.31249999999991
 42
0.4142135623730951
 10
251.125
 20
53.81249999999991
 10
251.125
 20
40.81249999999992
 42
0.4142135623730951
  0
LWPOLYLINE
  5
DBE
330
6F
100
AcDbEntity
  8
plate
  6
Continuous
100
AcDbPolyline
 90
        8
 70
     1
 43
0.0
 10
277.81875
 20
40.31249999999991
 10
278.9125
 20
40.31249999999991
 42
0.4142135623730951
 10
279.4125
 20
40.81249999999992
 10
279.4125
 20
53.81249999999991
 42
0.4142135623730951
 10
278.9125
 20
54.31249999999991
 10
277.81875
 20
54.31249999999991
 42
0.4142135623730951
 10
277.31875
 20
53.81249999999991
 10
277.31875
 20
40.81249999999992
 42
0.4142135623730951
  0
CIRCLE
  5
DBF
330
6F
100
AcDbEntity
  8
plate
  6
Continuous
100
AcDbCircle
 10
158.1125
 20
35.40624999999993
 30
0.0
 40
1.0
  0
CIRCLE
  5
DC0
330
6F
100
AcDbEntity
  8
plate
  6
Continuous
100
AcDbCircle
 10
62.86250000000005
 20
116.4624999999999
 30
0.0
 40
1.0
  0
LWPOLYLINE
  5
DC1
330
6F
100
AcDbEntity
  8
plate
  6
Continuous
100
AcDbPolyline
 90
        2
 70
     1
 43
0.0
 10
160.4053932188134
 20
37.11335678118647
 10
160.4053932188134
 20
37.11335678118647
  0
LWPOLYLINE
  5
DC2
330
6F
100
AcDbEntity
  8
plate
  6
Continuous
100
AcDbPolyline
 90
       14
 70
     1
 43
0.0
 10
132.7556981242462
 20
36.82046356237302
 10
155.2201505974967
 20
36.82046356237299
 42
0.2329299081972674
 10
155.814754154998
 20
37.11335678118647
 42
-0.2329299081972772
 10
156.4093577124994
 20
37.40624999999992
 10
159.8156422875005
 20
37.40624999999992
 42
-0.2329299081972772
 10
160.4102458450019
 20
37.11335678118647
 42
0.2329299081972674
 10
161.0048494025033
 20
36.82046356237299
 10
183.4693018757537
 20
36.82046356237299
 42
0.4142135623730951
 10
184.2193018757537
 20
37.57046356237302
 10
184.2193018757537
 20
38.06249999999992
 42
0.4142135623730951
 10
183.4693018757537
 20
38.81249999999992
 10
132.7556981242462
 20
38.81249999999992
 42
0.4142135623730951
 10
132.0056981242462
 20
38.06249999999992
 10
132.0056981242462
 20
37.57046356237302
 42
0.4142135623730951
  0
LWPOLYLINE
  5
DC3
330
6F
100
AcDbEntity
  8
plate
  6
Continuous
100
AcDbPolyline
 90
       30
 70
     1
 43
0.0
 10
128.4556981242462
 20
33.99203643762684
 42
-0.4142135623730951
 10
126.9556981242462
 20
35.49203643762684
 10
126.9556981242462
 20
38.06249999999992
 42
0.4142135623730951
 10
126.2056981242462
 20
38.81249999999992
 10
121.5125
 20
38.81249999999992
 42
0.4142135623730951
 10
120.0125
 20
37.31249999999992
 10
120.0125
 20
31.99999999999991
 42
0.4142135623730951
 10
121.5125
 20
30.49999999999992
 10
148.6627525316941
 20
30.49999999999992
 42
0.198912367379658
 10
149.7234127034739
 20
30.9393398282201
 10
150.3447330470336
 20
31.56066017177974
 42
-0.198912367379658
 10
151.4053932188134
 20
31.99999999999991
 10
164.8196067811866
 20
31.99999999999991
 42
-0.1989123673796614
 10
165.8802669529664
 20
31.56066017177972
 10
166.5015872965259
 20
30.93933982822012
 42
0.1989123673796628
 10
167.5622474683058
 20
30.49999999999992
 10
194.7125
 20
30.49999999999992
 42
0.4142135623730951
 10
196.2125
 20
31.99999999999991
 10
196.2125
 20
37.31249999999992
 42
0.4142135623730951
 10
194.7125
 20
38.81249999999992
 10
190.0193018757536
 20
38.81249999999992
 42
0.4142135623730951
 10
189.2693018757537
 20
38.06249999999992
 10
189.2693018757537
 20
35.49203643762684
 42
-0.4142135623730951
 10
187.7693018757535
 20
33.99203643762684
 10
161.0048494025033
 20
33.99203643762684
 42
0.2329299081972674
 10
160.4102458450019
 20
33.69914321881338
 42
-0.2329299081972772
 10
159.8156422875005
 20
33.40624999999994
 10
156.4093577124994
 20
33.40624999999994
 42
-0.2329299081972772
 10
155.814754154998
 20
33.69914321881338
 42
0.2329299081972674
 10
155.2201505974967
 20
33.99203643762684
  0
LWPOLYLINE
  5
DC4
330
6F
100
AcDbEntity
  8
plate
  6
Continuous
100
AcDbPolyline
 90
        4
 70
     0
 43
0.0
 10
298.9625
 20
113.4624999999999
 42
-0.4142135623730951
 10
300.4625
 20
111.9624999999999
 10
300.4625
 20
20.76249999999991
 42
-0.4142135623730951
 10
298.9625
 20
19.26249999999991
  0
LWPOLYLINE
  5
DC5
330
6F
100
AcDbEntity
  8
plate
  6
Continuous
100
AcDbPolyline
 90
       24
 70
     0
 43
0.0
 10
225.0960678118655
 20
19.26249999999991
 42
0.1989123673796587
 10
224.0354076400858
 20
18.82316017177974
 10
220.151587296526
 20
14.93933982822008
 42
-0.1989123673796584
 10
219.0909271247462
 20
14.49999999999991
 10
211.4340728752539
 20
14.49999999999991
 42
-0.1989123673796554
 10
210.3734127034741
 20
14.93933982822008
 10
209.2520923599144
 20
16.06066017177974
 42
0.1989123673796564
 10
208.1914321881345
 20
16.49999999999991
 10
167.5622474683058
 20
16.49999999999991
 42
0.1989123673796612
 10
166.5015872965259
 20
16.06066017177972
 10
165.8802669529664
 20
15.43933982822011
 42
-0.1989123673796628
 10
164.8196067811866
 20
14.99999999999991
 10
151.4053932188134
 20
14.99999999999991
 42
-0.1989123673796617
 10
150.3447330470335
 20
15.4393398282201
 10
149.7234127034739
 20
16.06066017177971
 42
0.1989123673796631
 10
148.6627525316941
 20
16.49999999999991
 10
108.0335678118655
 20
16.49999999999991
 42
0.1989123673796581
 10
106.9729076400856
 20
16.06066017177973
 10
105.851587296526
 20
14.93933982822009
 42
-0.1989123673796582
 10
104.7909271247462
 20
14.49999999999991
 10
97.13407287525383
 20
14.49999999999991
 42
-0.198912367379658
 10
96.07341270347397
 20
14.93933982822009
 10
92.18959235991437
 20
18.82316017177973
 42
0.198912367379658
 10
91.12893218813454
 20
19.26249999999991
  0
LWPOLYLINE
  5
DC6
330
6F
100
AcDbEntity
  8
plate
  6
Continuous
100
AcDbPolyline
 90
        3
 70
     0
 43
0.0
 10
80.13749999999957
 20
19.26249999999991
 42
0.4142135623731762
 10
79.38749999999958
 20
18.5124999999997
 10
79.38749999999965
 20
18.26249999999999
  0
LWPOLYLINE
  5
DC7
330
6F
100
AcDbEntity
  8
plate
  6
Continuous
100
AcDbPolyline
 90
        3
 70
     0
 43
0.0
 10
22.52500000000004
 20
18.26249999999999
 10
22.52500000000004
 20
18.51249999999991
 42
0.4142135623730951
 10
21.77500000000005
 20
19.26249999999991
  0
LWPOLYLINE
  5
DC8
330
6F
100
AcDbEntity
  8
plate
  6
Continuous
100
AcDbPolyline
 90
        4
 70
     0
 43
0.0
 10
17.26250000000004
 20
19.26249999999991
 42
-0.4142135623730948
 10
15.76250000000004
 20
20.76249999999991
 10
15.76250000000004
 20
111.9624999999999
 42
-0.4142135623730951
 10
17.26249999999998
 20
113.4624999999999
  0
LWPOLYLINE
  5
DC9
330
6F
100
AcDbEntity
  8
plate
  6
Continuous
100
AcDbPolyline
 90
        3
 70
     0
 43
0.0
 10
30.95569812424629
 20
113.4624999999999
 42
0.4142135623730951
 10
31.70569812424629
 20
114.2124999999999
 10
31.70569812424629
 20
114.4625
  0
LWPOLYLINE
  5
DCA
330
6F
100
AcDbEntity
  8
plate
  6
Continuous
100
AcDbPolyline
 90
        3
 70
     0
 43
0.0
 10
94.01930187575381
 20
114.4625
 10
94.01930187575381
 20
114.2124999999999
 42
0.4142135623730951
 10
94.76930187575385
 20
113.4624999999999
  0
CIRCLE
  5
DCB
330
6F
100
AcDbEntity
  8
plate
  6
Continuous
100
AcDbCircle
 10
50.95624999999982
 20
16.26249999999993
 30
0.0
 40
1.0
  0
LWPOLYLINE
  5
DCC
330
6F
100
AcDbEntity
  8
plate
  6
Continuous
100
AcDbPolyline
 90
        8
 70
     1
 43
0.0
 10
84.8175069993001
 20
35.26249999999992
 10
91.89250699930012
 20
35.26249999999992
 42
-0.4142135623730951
 10
92.39250699930011
 20
34.76249999999992
 10
92.39250699930011
 20
21.76249999999992
 42
-0.4142135623730951
 10
91.89250699930012
 20
21.26249999999992
 10
84.8175069993001
 20
21.26249999999992
 42
-0.4142135623730951
 10
84.31750699930011
 20
21.76249999999992
 10
84.31750699930011
 20
34.76249999999992
 42
-0.4142135623730951
  0
LWPOLYLINE
  5
DCD
330
6F
100
AcDbEntity
  8
plate
  6
Continuous
100
AcDbPolyline
 90
        8
 70
     1
 43
0.0
 10
114.4625
 20
35.26249999999992
 10
110.0324930006999
 20
35.26249999999992
 42
0.4142135623730951
 10
109.5324930006999
 20
34.76249999999992
 10
109.5324930006999
 20
21.76249999999992
 42
0.4142135623730951
 10
110.0324930006999
 20
21.26249999999992
 10
114.4625
 20
21.26249999999992
 42
0.4142135623730953
 10
114.9625
 20
21.76249999999992
 10
114.9625
 20
34.76249999999992
 42
0.4142135623730951
  0
CIRCLE
  5
DCE
330
6F
100
AcDbEntity
  8
plate
  6
Continuous
100
AcDbCircle
 10
61.75625000000003
 20
36.41001735537181
 30
0.0
 40
2.049999999999998
  0
CIRCLE
  5
DCF
330
6F
100
AcDbEntity
  8
plate
  6
Continuous
100
AcDbCircle
 10
254.4687500000001
 20
36.41001735537181
 30
0.0
 40
2.049999999999998
  0
CIRCLE
  5
DD0
330
6F
100
AcDbEntity
  8
plate
  6
Continuous
100
AcDbCircle
 10
41.43125000000004
 20
90.3624999999999
 30
0.0
 40
2.049999999999998
  0
CIRCLE
  5
DD1
330
6F
100
AcDbEntity
  8
plate
  6
Continuous
100
AcDbCircle
 10
274.79375
 20
90.3624999999999
 30
0.0
 40
2.049999999999998
  0
CIRCLE
  5
DD2
330
6F
100
AcDbEntity
  8
plate
  6
Continuous
100
AcDbCircle
 10
120.0125
 20
76.64740667926078
 30
0.0
 40
2.049999999999998
  0
CIRCLE
  5
DD3
330
6F
100
AcDbEntity
  8
plate
  6
Continuous
100
AcDbCircle
 10
196.2125
 20
76.64740667926078
 30
0.0
 40
2.049999999999998
  0
LINE
  5
DD4
330
6F
100
AcDbEntity
  8
plate
  6
Continuous
100
AcDbLine
 10
17.26250000000004
 20
19.26249999999991
 30
0.0
 11
21.77500000000005
 21
19.26249999999991
 31
0.0
  0
LINE
  5
DD5
330
6F
100
AcDbEntity
  8
plate
  6
Continuous
100
AcDbLine
 10
80.13749999999957
 20
19.26249999999991
 30
0.0
 11
91.12893218813454
 21
19.26249999999991
 31
0.0
  0
LINE
  5
DD6
330
6F
100
AcDbEntity
  8
plate
  6
Continuous
100
AcDbLine
 10
225.0960678118655
 20
19.26249999999991
 30
0.0
 11
236.0875000000005
 21
19.26249999999991
 31
0.0
  0
LINE
  5
DD7
330
6F
100
AcDbEntity
  8
plate
  6
Continuous
100
AcDbLine
 10
294.4500000000001
 20
19.26249999999991
 30
0.0
 11
298.9625
 21
19.26249999999991
 31
0.0
  0
LINE
  5
DD8
330
6F
100
AcDbEntity
  8
plate
  6
Continuous
100
AcDbLine
 10
17.26250000000003
 20
113.4624999999999
 30
0.0
 11
30.95569812424628
 21
113.4624999999999
 31
0.0
  0
LINE
  5
DD9
330
6F
100
AcDbEntity
  8
plate
  6
Continuous
100
AcDbLine
 10
94.76930187575382
 20
113.4624999999999
 30
0.0
 11
126.2056981242463
 21
113.4624999999999
 31
0.0
  0
LINE
  5
DDA
330
6F
100
AcDbEntity
  8
plate
  6
Continuous
100
AcDbLine
 10
190.0193018757538
 20
113.4624999999999
 30
0.0
 11
221.4556981242463
 21
113.4624999999999
 31
0.0
  0
LINE
  5
DDB
330
6F
100
AcDbEntity
  8
plate
  6
Continuous
100
AcDbLine
 10
285.2693018757539
 20
113.4624999999999
 30
0.0
 11
298.9625
 21
113.4624999999999
 31
0.0
  0
LWPOLYLINE
  5
E2A
330
6F
100
AcDbEntity
  8
plate
  6
Continuous
100
AcDbPolyline
 90
        6
 70
     0
 43
0.0
 10
31.70569812424629
 20
114.2124999999999
 10
31.70569812424629
 20
116.9624999999999
 42
-0.4142135623730951
 10
33.20569812424628
 20
118.4624999999999
 10
92.5193018757538
 20
118.4624999999999
 42
-0.4142135623730951
 10
94.01930187575381
 20
116.9624999999999
 10
94.01930187575381
 20
114.2124999999999
  0
LWPOLYLINE
  5
E2B
330
6F
100
AcDbEntity
  8
plate
  6
Continuous
100
AcDbPolyline
 90
        8
 70
     1
 43
0.0
 10
37.56250000000004
 20
114.4625
 10
88.16250000000001
 20
114.4625
 42
-0.4142135623730951
 10
88.91250000000002
 20
113.7125
 10
88.91250000000002
 20
113.7125
 42
-0.4142135623730951
 10
88.16250000000001
 20
112.9625
 10
37.56250000000004
 20
112.9625
 42
-0.4142135623730951
 10
36.81250000000004
 20
113.7124999999999
 10
36.81250000000004
 20
113.7124999999999
 42
-0.414213562373095
  0
CIRCLE
  5
E2C
330
6F
100
AcDbEntity
  8
plate
  6
Continuous
100
AcDbCircle
 10
158.1125000000001
 20
116.4624999999999
 30
0.0
 40
1.0
  0
LWPOLYLINE
  5
E2D
330
6F
100
AcDbEntity
  8
plate
  6
Continuous
100
AcDbPolyline
 90
        3
 70
     0
 43
0.0
 10
126.2056981242463
 20
113.4624999999999
 42
0.4142135623730951
 10
126.9556981242463
 20
114.2124999999999
 10
126.9556981242463
 20
114.4625
  0
LWPOLYLINE
  5
E2E
330
6F
100
AcDbEntity
  8
plate
  6
Continuous
100
AcDbPolyline
 90
        3
 70
     0
 43
0.0
 10
189.2693018757538
 20
114.4625
 10
189.2693018757538
 20
114.2124999999999
 42
0.4142135623730951
 10
190.0193018757539
 20
113.4624999999999
  0
LWPOLYLINE
  5
E31
330
6F
100
AcDbEntity
  8
plate
  6
Continuous
100
AcDbPolyline
 90
        6
 70
     0
 43
0.0
 10
126.9556981242463
 20
114.2124999999999
 10
126.9556981242463
 20
116.9624999999999
 42
-0.4142135623730951
 10
128.4556981242463
 20
118.4624999999999
 10
187.7693018757538
 20
118.4624999999999
 42
-0.4142135623730951
 10
189.2693018757538
 20
116.9624999999999
 10
189.2693018757538
 20
114.2124999999999
  0
LWPOLYLINE
  5
E32
330
6F
100
AcDbEntity
  8
plate
  6
Continuous
100
AcDbPolyline
 90
        8
 70
     1
 43
0.0
 10
132.8125
 20
114.4625
 10
183.4125
 20
114.4625
 42
-0.4142135623730951
 10
184.1625
 20
113.7125
 10
184.1625
 20
113.7125
 42
-0.4142135623730951
 10
183.4125
 20
112.9625
 10
132.8125
 20
112.9625
 42
-0.4142135623730951
 10
132.0625
 20
113.7124999999999
 10
132.0625
 20
113.7124999999999
 42
-0.414213562373095
  0
CIRCLE
  5
E33
330
6F
100
AcDbEntity
  8
plate
  6
Continuous
100
AcDbCircle
 10
253.3625
 20
116.4624999999999
 30
0.0
 40
1.0
  0
LWPOLYLINE
  5
E34
330
6F
100
AcDbEntity
  8
plate
  6
Continuous
100
AcDbPolyline
 90
        3
 70
     0
 43
0.0
 10
221.4556981242463
 20
113.4624999999999
 42
0.4142135623730951
 10
222.2056981242463
 20
114.2124999999999
 10
222.2056981242463
 20
114.4624999999999
  0
LWPOLYLINE
  5
E35
330
6F
100
AcDbEntity
  8
plate
  6
Continuous
100
AcDbPolyline
 90
        3
 70
     0
 43
0.0
 10
284.5193018757538
 20
114.4624999999999
 10
284.5193018757538
 20
114.2124999999999
 42
0.4142135623730951
 10
285.2693018757539
 20
113.4624999999999
  0
LWPOLYLINE
  5
E38
330
6F
100
AcDbEntity
  8
plate
  6
Continuous
100
AcDbPolyline
 90
        6
 70
     0
 43
0.0
 10
222.2056981242463
 20
114.2124999999999
 10
222.2056981242463
 20
116.9624999999999
 42
-0.4142135623730951
 10
223.7056981242463
 20
118.4624999999999
 10
283.0193018757538
 20
118.4624999999999
 42
-0.4142135623730951
 10
284.5193018757538
 20
116.9624999999999
 10
284.5193018757538
 20
114.2124999999999
  0
LWPOLYLINE
  5
E39
330
6F
100
AcDbEntity
  8
plate
  6
Continuous
100
AcDbPolyline
 90
        8
 70
     1
 43
0.0
 10
228.0625000000001
 20
114.4624999999999
 10
278.6625
 20
114.4625
 42
-0.4142135623730951
 10
279.4125
 20
113.7125
 10
279.4125
 20
113.7125
 42
-0.4142135623730951
 10
278.6625
 20
112.9625
 10
228.0625
 20
112.9624999999999
 42
-0.4142135623730951
 10
227.3125000000001
 20
113.7124999999999
 10
227.3125000000001
 20
113.7124999999999
 42
-0.414213562373095
  0
LWPOLYLINE
  5
E3A
330
6F
100
AcDbEntity
  8
plate
  6
Continuous
100
AcDbPolyline
 90
        8
 70
     1
 43
0.0
 10
28.32500000000005
 20
19.76249999999999
 10
73.58749999999955
 20
19.76249999999999
 42
-0.4142135623730951
 10
74.33749999999955
 20
19.01249999999999
 10
74.33749999999955
 20
19.01249999999999
 42
-0.4142135623730951
 10
73.58749999999955
 20
18.26249999999999
 10
28.32500000000005
 20
18.26249999999999
 42
-0.4142135623730951
 10
27.57500000000005
 20
19.01249999999999
 10
27.57500000000005
 20
19.01249999999999
 42
-0.4142135623730951
  0
LWPOLYLINE
  5
E3B
330
6F
100
AcDbEntity
  8
plate
  6
Continuous
100
AcDbPolyline
 90
        6
 70
     0
 43
0.0
 10
22.52500000000005
 20
18.26249999999999
 10
22.52500000000005
 20
15.76249999999999
 42
0.4142135623730951
 10
24.02500000000005
 20
14.26249999999999
 10
77.88749999999964
 20
14.26249999999999
 42
0.4142135623730951
 10
79.38749999999965
 20
15.76249999999999
 10
79.38749999999965
 20
18.26249999999999
  0
LWPOLYLINE
  5
E3C
330
6F
100
AcDbEntity
  8
plate
  6
Continuous
100
AcDbPolyline
 90
        3
 70
     0
 43
0.0
 10
236.0875000000005
 20
19.26249999999991
 42
-0.4142135623731762
 10
236.8375000000005
 20
18.5124999999997
 10
236.8375000000004
 20
18.26249999999999
  0
LWPOLYLINE
  5
E3D
330
6F
100
AcDbEntity
  8
plate
  6
Continuous
100
AcDbPolyline
 90
        3
 70
     0
 43
0.0
 10
293.7000000000001
 20
18.26249999999999
 10
293.7000000000001
 20
18.51249999999991
 42
-0.4142135623730951
 10
294.4500000000001
 20
19.26249999999991
  0
CIRCLE
  5
E3E
330
6F
100
AcDbEntity
  8
plate
  6
Continuous
100
AcDbCircle
 10
265.2687500000002
 20
16.26249999999993
 30
0.0
 40
1.0
  0
LWPOLYLINE
  5
E41
330
6F
100
AcDbEntity
  8
plate
  6
Continuous
100
AcDbPolyline
 90
        8
 70
     1
 43
0.0
 10
287.9
 20
19.76249999999999
 10
242.6375000000005
 20
19.76249999999999
 42
0.4142135623730951
 10
241.8875000000005
 20
19.01249999999999
 10
241.8875000000005
 20
19.01249999999999
 42
0.4142135623730951
 10
242.6375000000005
 20
18.26249999999999
 10
287.9
 20
18.26249999999999
 42
0.4142135623730951
 10
288.65
 20
19.01249999999999
 10
288.65
 20
19.01249999999999
 42
0.4142135623730951
  0
LWPOLYLINE
  5
E42
330
6F
100
AcDbEntity
  8
plate
  6
Continuous
100
AcDbPolyline
 90
        6
 70
     0
 43
0.0
 10
293.7000000000001
 20
18.26249999999999
 10
293.7000000000001
 20
15.76249999999999
 42
-0.4142135623730951
 10
292.2
 20
14.26249999999999
 10
238.3375000000004
 20
14.26249999999999
 42
-0.4142135623730951
 10
236.8375000000004
 20
15.76249999999999
 10
236.8375000000004
 20
18.26249999999999
  0
LWPOLYLINE
  5
E57
330
6F
100
AcDbEntity
  8
plate
  6
Continuous
100
AcDbPolyline
 90
        8
 70
     1
 43
0.0
 10
231.4074930007
 20
35.26249999999992
 10
224.3324930007
 20
35.26249999999992
 42
0.4142135623730951
 10
223.8324930007
 20
34.76249999999992
 10
223.8324930007
 20
21.76249999999992
 42
0.4142135623730951
 10
224.3324930007
 20
21.26249999999992
 10
231.4074930007
 20
21.26249999999992
 42
0.4142135623730951
 10
231.9074930006999
 20
21.76249999999992
 10
231.9074930006999
 20
34.76249999999992
 42
0.4142135623730951
  0
LWPOLYLINE
  5
E58
330
6F
100
AcDbEntity
  8
plate
  6
Continuous
100
AcDbPolyline
 90
        8
 70
     1
 43
0.0
 10
201.7625000000001
 20
35.26249999999992
 10
206.1925069993002
 20
35.26249999999992
 42
-0.4142135623730951
 10
206.6925069993001
 20
34.76249999999992
 10
206.6925069993001
 20
21.76249999999992
 42
-0.4142135623730951
 10
206.1925069993002
 20
21.26249999999992
 10
201.7625000000001
 20
21.26249999999992
 42
-0.4142135623730953
 10
201.2625
 20
21.76249999999992
 10
201.2625
 20
34.76249999999992
 42
-0.4142135623730951
  0
ENDSEC
  0
SECTION
  2
OBJECTS
  0
DICTIONARY
  5
C
330
0
100
AcDbDictionary
281
     1
  3
ACAD_CIP_PREVIOUS_PRODUCT_INFO
350
2B2
  3
ACAD_COLOR
350
62
  3
ACAD_DETAILVIEWSTYLE
350
69
  3
ACAD_GROUP
350
D
  3
ACAD_LAST_SAVED_VERSION_INFO
350
882
  3
ACAD_LAYOUT
350
61
  3
ACAD_MATERIAL
350
10
  3
ACAD_MLEADERSTYLE
350
65
  3
ACAD_MLINESTYLE
350
5E
  3
ACAD_PLOTSETTINGS
350
60
  3
ACAD_PLOTSTYLENAME
350
E
  3
ACAD_SCALELIST
350
42
  3
ACAD_SECTIONVIEWSTYLE
350
67
  3
ACAD_TABLESTYLE
350
63
  3
ACAD_VISUALSTYLE
350
29
  3
ACDB_RECOMPOSE_DATA
350
E61
  3
AcDbVariableDictionary
350
422
  0
DICTIONARY
  5
908
330
2
100
AcDbDictionary
280
     1
281
     1
  3
ACAD_LAYERSTATES
360
909
  0
DICTIONARY
  5
883
330
54
100
AcDbDictionary
280
     1
281
     1
  3
ADSK_XREC_LAYER_RECONCILED
360
884
  0
DICTIONARY
  5
41E
330
6F
100
AcDbDictionary
280
     1
281
     1
  3
ACAD_SORTENTS
360
41F
  0
DICTIONARY
  5
B5A
330
B56
100
AcDbDictionary
280
     1
281
     1
  3
ACAD_SORTENTS
360
B5B
  0
XRECORD
  5
2B2
102
{ACAD_REACTORS
330
C
102
}
330
C
100
AcDbXrecord
280
     1
300
ACD
300
2026
300
88023ACD_2026_0F
  0
DICTIONARY
  5
62
102
{ACAD_REACTORS
330
C
102
}
330
C
100
AcDbDictionary
281
     1
  0
DICTIONARY
  5
69
102
{ACAD_REACTORS
330
C
102
}
330
C
100
AcDbDictionary
281
     1
  3
Imperial24
350
6A
  0
DICTIONARY
  5
D
102
{ACAD_REACTORS
330
C
102
}
330
C
100
AcDbDictionary
281
     1
  0
XRECORD
  5
882
102
{ACAD_REACTORS
330
C
102
}
330
C
100
AcDbXrecord
280
     1
300
{FDB74E7D-AD87-3347-8708-0CC2E5BF565A}
301

302
{FDB74E7D-AD87-3347-8708-0CC2E5BF565A}
303
E:\Minimal60\resources\plate.dxf
  0
DICTIONARY
  5
61
102
{ACAD_REACTORS
330
C
102
}
330
C
100
AcDbDictionary
281
     1
  3
Layout1
350
6E
  3
Model
350
72
  0
DICTIONARY
  5
10
102
{ACAD_REACTORS
330
C
102
}
330
C
100
AcDbDictionary
281
     1
  3
ByBlock
350
19
  3
ByLayer
350
11
  3
Global
350
21
  0
DICTIONARY
  5
65
102
{ACAD_REACTORS
330
C
102
}
330
C
100
AcDbDictionary
281
     1
  3
Standard
350
66
  0
DICTIONARY
  5
5E
102
{ACAD_REACTORS
330
C
102
}
330
C
100
AcDbDictionary
281
     1
  3
Standard
350
5F
  0
DICTIONARY
  5
60
102
{ACAD_REACTORS
330
C
102
}
330
C
100
AcDbDictionary
281
     1
  0
ACDBDICTIONARYWDFLT
  5
E
102
{ACAD_REACTORS
330
C
102
}
330
C
100
AcDbDictionary
281
     1
  3
Normal
350
F
100
AcDbDictionaryWithDefault
340
F
  0
DICTIONARY
  5
42
102
{ACAD_REACTORS
330
C
102
}
330
C
100
AcDbDictionary
281
     1
  3
A0
350
43
  3
A1
350
44
  3
A2
350
45
  3
A3
350
46
  3
A4
350
47
  3
A5
350
48
  3
A6
350
49
  3
A7
350
4A
  3
A8
350
4B
  3
A9
350
4C
  3
B0
350
4D
  3
B1
350
4E
  3
B2
350
4F
  3
B3
350
50
  3
B4
350
51
  3
B5
350
52
  3
B6
350
53
  0
DICTIONARY
  5
67
102
{ACAD_REACTORS
330
C
102
}
330
C
100
AcDbDictionary
281
     1
  3
Imperial24
350
68
  0
DICTIONARY
  5
63
102
{ACAD_REACTORS
330
C
102
}
330
C
100
AcDbDictionary
281
     1
  3
Standard
350
64
  0
DICTIONARY
  5
29
102
{ACAD_REACTORS
330
C
102
}
330
C
100
AcDbDictionary
281
     1
  3
2dWireframe
350
2F
  3
Basic
350
2E
  3
Brighten
350
35
  3
ColorChange
350
39
  3
Conceptual
350
32
  3
Dim
350
34
  3
EdgeColorOff
350
41
  3
Facepattern
350
38
  3
Flat
350
2A
  3
FlatWithEdges
350
2B
  3
Gouraud
350
2C
  3
GouraudWithEdges
350
2D
  3
Hidden
350
31
  3
JitterOff
350
3F
  3
Linepattern
350
37
  3
OverhangOff
350
40
  3
Realistic
350
33
  3
Shaded
350
3E
  3
Shaded with edges
350
3D
  3
Shades of Gray
350
3A
  3
Sketchy
350
3B
  3
Thicken
350
36
  3
Wireframe
350
30
  3
X-Ray
350
3C
  0
XRECORD
  5
E61
102
{ACAD_REACTORS
330
C
102
}
330
C
100
AcDbXrecord
280
     1
 90
        1
330
64
  0
DICTIONARY
  5
422
102
{ACAD_REACTORS
330
C
102
}
330
C
100
AcDbDictionary
281
     1
  3
CANNOSCALE
350
428
  3
CMLEADERSTYLE
350
424
  3
CTABLESTYLE
350
423
  3
CVIEWDETAILSTYLE
350
425
  3
CVIEWSECTIONSTYLE
350
426
  3
LAYEREVAL
350
42A
  3
LAYERNOTIFY
350
42B
  3
LIGHTINGUNITS
350
429
  3
MSLTSCALE
350
427
  0
DICTIONARY
  5
909
102
{ACAD_REACTORS
330
908
102
}
330
908
100
AcDbDictionary
281
     1
  0
XRECORD
  5
884
102
{ACAD_REACTORS
330
883
102
}
330
883
100
AcDbXrecord
280
     1
290
     1
  0
SORTENTSTABLE
  5
41F
102
{ACAD_REACTORS
330
41E
102
}
330
41E
100
AcDbSortentsTable
330
6F
  0
SORTENTSTABLE
  5
B5B
102
{ACAD_REACTORS
330
B5A
102
}
330
B5A
100
AcDbSortentsTable
330
B56
  0
ACDBDETAILVIEWSTYLE
  5
6A
102
{ACAD_REACTORS
330
69
102
}
330
69
100
AcDbModelDocViewStyle
 70
     0
  3
Imperial24
290
     0
300
Imperial24
 90
        0
100
AcDbDetailViewStyle
 70
     0
 71
     0
 90
        3
 71
     1
340
55
 62
   256
 40
0.24
340
0
 62
   256
 40
0.24
300

 40
0.36
280
     3
 71
     2
340
5C
 90
       25
 62
   256
 71
     3
340
55
 62
   256
 40
0.24
 90
        1
 40
0.75
 90
        1
300
%<\AcVar ViewType \f "%tc1">% %<\AcVar ViewDetailId>%\PSCALE %<\AcVar ViewScale \f "%sn">%
 71
     4
340
5C
 90
       25
 62
   256
340
5C
 90
       25
 62
   256
280
     0
  0
LAYOUT
  5
6E
102
{ACAD_REACTORS
330
61
102
}
330
61
100
AcDbPlotSettings
  1

  2
Adobe PDF
  4

  6

 40
0.0
 41
0.0
 42
0.0
 43
0.0
 44
0.0
 45
0.0
 46
0.0
 47
0.0
 48
0.0
 49
0.0
140
0.0
141
0.0
142
1.0
143
1.0
 70
   688
 72
     0
 73
     0
 74
     5
  7

 75
    16
147
1.0
 76
     0
 77
     2
 78
   300
148
0.0
149
0.0
100
AcDbLayout
  1
Layout1
 70
     1
 71
     1
 10
0.0
 20
0.0
 11
12.0
 21
9.0
 12
0.0
 22
0.0
 32
0.0
 14
1.000000000000000E+20
 24
1.000000000000000E+20
 34
1.000000000000000E+20
 15
-1.000000000000000E+20
 25
-1.000000000000000E+20
 35
-1.000000000000000E+20
146
0.0
 13
0.0
 23
0.0
 33
0.0
 16
1.0
 26
0.0
 36
0.0
 17
0.0
 27
1.0
 37
0.0
 76
     0
330
6B
  0
LAYOUT
  5
72
102
{ACAD_REACTORS
330
61
102
}
330
61
100
AcDbPlotSettings
  1

  2
Adobe PDF
  4

  6

 40
0.0
 41
0.0
 42
0.0
 43
0.0
 44
0.0
 45
0.0
 46
0.0
 47
0.0
 48
0.0
 49
0.0
140
0.0
141
0.0
142
1.0
143
1.0
 70
  1712
 72
     0
 73
     0
 74
     0
  7

 75
     0
147
1.0
 76
     0
 77
     2
 78
   300
148
0.0
149
0.0
100
AcDbLayout
  1
Model
 70
     1
 71
     0
 10
0.0
 20
0.0
 11
12.0
 21
9.0
 12
0.0
 22
0.0
 32
0.0
 14
0.0
 24
0.0
 34
0.0
 15
0.0
 25
0.0
 35
0.0
146
0.0
 13
0.0
 23
0.0
 33
0.0
 16
1.0
 26
0.0
 36
0.0
 17
0.0
 27
1.0
 37
0.0
 76
     0
330
6F
331
74
  0
MATERIAL
  5
19
102
{ACAD_XDICTIONARY
360
1A
102
}
102
{ACAD_REACTORS
330
10
102
}
330
10
100
AcDbMaterial
  1
ByBlock
 72
     0
 43
0.0208333333333333
 43
0.0
 43
0.0
 43
0.0
 43
0.0
 43
0.0208333333333333
 43
0.0
 43
0.0
 43
0.0
 43
0.0
 43
1.0
 43
0.0
 43
0.0
 43
0.0
 43
0.0
 43
1.0
 77
     0
 47
0.0208333333333333
 47
0.0
 47
0.0
 47
0.0
 47
0.0
 47
0.0208333333333333
 47
0.0
 47
0.0
 47
0.0
 47
0.0
 47
1.0
 47
0.0
 47
0.0
 47
0.0
 47
0.0
 47
1.0
171
     0
 49
0.0208333333333333
 49
0.0
 49
0.0
 49
0.0
 49
0.0
 49
0.0208333333333333
 49
0.0
 49
0.0
 49
0.0
 49
0.0
 49
1.0
 49
0.0
 49
0.0
 49
0.0
 49
0.0
 49
1.0
175
     0
142
0.0208333333333333
142
0.0
142
0.0
142
0.0
142
0.0
142
0.0208333333333333
142
0.0
142
0.0
142
0.0
142
0.0
142
1.0
142
0.0
142
0.0
142
0.0
142
0.0
142
1.0
179
     0
144
0.0208333333333333
144
0.0
144
0.0
144
0.0
144
0.0
144
0.0208333333333333
144
0.0
144
0.0
144
0.0
144
0.0
144
1.0
144
0.0
144
0.0
144
0.0
144
0.0
144
1.0
147
0.0208333333333333
147
0.0
147
0.0
147
0.0
147
0.0
147
0.0208333333333333
147
0.0
147
0.0
147
0.0
147
0.0
147
1.0
147
0.0
147
0.0
147
0.0
147
0.0
147
1.0
  0
MATERIAL
  5
11
102
{ACAD_XDICTIONARY
360
12
102
}
102
{ACAD_REACTORS
330
10
102
}
330
10
100
AcDbMaterial
  1
ByLayer
 72
     0
 43
0.0208333333333333
 43
0.0
 43
0.0
 43
0.0
 43
0.0
 43
0.0208333333333333
 43
0.0
 43
0.0
 43
0.0
 43
0.0
 43
1.0
 43
0.0
 43
0.0
 43
0.0
 43
0.0
 43
1.0
 77
     0
 47
0.0208333333333333
 47
0.0
 47
0.0
 47
0.0
 47
0.0
 47
0.0208333333333333
 47
0.0
 47
0.0
 47
0.0
 47
0.0
 47
1.0
 47
0.0
 47
0.0
 47
0.0
 47
0.0
 47
1.0
171
     0
 49
0.0208333333333333
 49
0.0
 49
0.0
 49
0.0
 49
0.0
 49
0.0208333333333333
 49
0.0
 49
0.0
 49
0.0
 49
0.0
 49
1.0
 49
0.0
 49
0.0
 49
0.0
 49
0.0
 49
1.0
175
     0
142
0.0208333333333333
142
0.0
142
0.0
142
0.0
142
0.0
142
0.0208333333333333
142
0.0
142
0.0
142
0.0
142
0.0
142
1.0
142
0.0
142
0.0
142
0.0
142
0.0
142
1.0
179
     0
144
0.0208333333333333
144
0.0
144
0.0
144
0.0
144
0.0
144
0.0208333333333333
144
0.0
144
0.0
144
0.0
144
0.0
144
1.0
144
0.0
144
0.0
144
0.0
144
0.0
144
1.0
147
0.0208333333333333
147
0.0
147
0.0
147
0.0
147
0.0
147
0.0208333333333333
147
0.0
147
0.0
147
0.0
147
0.0
147
1.0
147
0.0
147
0.0
147
0.0
147
0.0
147
1.0
  0
MATERIAL
  5
21
102
{ACAD_XDICTIONARY
360
22
102
}
102
{ACAD_REACTORS
330
10
102
}
330
10
100
AcDbMaterial
  1
Global
 72
     0
 43
0.0208333333333333
 43
0.0
 43
0.0
 43
0.0
 43
0.0
 43
0.0208333333333333
 43
0.0
 43
0.0
 43
0.0
 43
0.0
 43
1.0
 43
0.0
 43
0.0
 43
0.0
 43
0.0
 43
1.0
 77
     0
 47
0.0208333333333333
 47
0.0
 47
0.0
 47
0.0
 47
0.0
 47
0.0208333333333333
 47
0.0
 47
0.0
 47
0.0
 47
0.0
 47
1.0
 47
0.0
 47
0.0
 47
0.0
 47
0.0
 47
1.0
171
     0
 49
0.0208333333333333
 49
0.0
 49
0.0
 49
0.0
 49
0.0
 49
0.0208333333333333
 49
0.0
 49
0.0
 49
0.0
 49
0.0
 49
1.0
 49
0.0
 49
0.0
 49
0.0
 49
0.0
 49
1.0
175
     0
142
0.0208333333333333
142
0.0
142
0.0
142
0.0
142
0.0
142
0.0208333333333333
142
0.0
142
0.0
142
0.0
142
0.0
142
1.0
142
0.0
142
0.0
142
0.0
142
0.0
142
1.0
179
     0
144
0.0208333333333333
144
0.0
144
0.0
144
0.0
144
0.0
144
0.0208333333333333
144
0.0
144
0.0
144
0.0
144
0.0
144
1.0
144
0.0
144
0.0
144
0.0
144
0.0
144
1.0
147
0.0208333333333333
147
0.0
147
0.0
147
0.0
147
0.0
147
0.0208333333333333
147
0.0
147
0.0
147
0.0
147
0.0
147
1.0
147
0.0
147
0.0
147
0.0
147
0.0
147
1.0
  0
MLEADERSTYLE
  5
66
102
{ACAD_REACTORS
330
65
102
}
330
65
100
AcDbMLeaderStyle
179
     2
170
     2
171
     1
172
     0
 90
        2
 40
0.0
 41
0.0
173
     1
 91
-1056964608
340
5A
 92
       -2
290
     1
 42
0.09
291
     1
 43
0.36
  3
Standard
 44
0.18
300

342
55
174
     1
178
     6
175
     1
176
     0
 93
-1056964608
 45
0.18
292
     0
297
     0
 46
0.18
 94
-1056964608
 47
1.0
 49
1.0
140
1.0
293
     1
141
0.0
294
     1
177
     0
142
1.0
295
     0
296
     0
143
0.125
271
     0
272
     9
273
     9
298
     0
  0
MLINESTYLE
  5
5F
102
{ACAD_REACTORS
330
5E
102
}
330
5E
100
AcDbMlineStyle
  2
STANDARD
 70
     0
  3

 62
   256
 51
90.0
 52
90.0
 71
     2
 49
0.5
 62
   256
  6
BYLAYER
 49
-0.5
 62
   256
  6
BYLAYER
  0
ACDBPLACEHOLDER
  5
F
102
{ACAD_REACTORS
330
E
102
}
330
E
  0
SCALE
  5
43
102
{ACAD_REACTORS
330
42
102
}
330
42
100
AcDbScale
 70
     0
300
1:1
140
1.0
141
1.0
290
     1
  0
SCALE
  5
44
102
{ACAD_REACTORS
330
42
102
}
330
42
100
AcDbScale
 70
     0
300
1/128" = 1'-0"
140
0.0078125
141
12.0
290
     0
  0
SCALE
  5
45
102
{ACAD_REACTORS
330
42
102
}
330
42
100
AcDbScale
 70
     0
300
1/64" = 1'-0"
140
0.015625
141
12.0
290
     0
  0
SCALE
  5
46
102
{ACAD_REACTORS
330
42
102
}
330
42
100
AcDbScale
 70
     0
300
1/32" = 1'-0"
140
0.03125
141
12.0
290
     0
  0
SCALE
  5
47
102
{ACAD_REACTORS
330
42
102
}
330
42
100
AcDbScale
 70
     0
300
1/16" = 1'-0"
140
0.0625
141
12.0
290
     0
  0
SCALE
  5
48
102
{ACAD_REACTORS
330
42
102
}
330
42
100
AcDbScale
 70
     0
300
3/32" = 1'-0"
140
0.09375
141
12.0
290
     0
  0
SCALE
  5
49
102
{ACAD_REACTORS
330
42
102
}
330
42
100
AcDbScale
 70
     0
300
1/8" = 1'-0"
140
0.125
141
12.0
290
     0
  0
SCALE
  5
4A
102
{ACAD_REACTORS
330
42
102
}
330
42
100
AcDbScale
 70
     0
300
3/16" = 1'-0"
140
0.1875
141
12.0
290
     0
  0
SCALE
  5
4B
102
{ACAD_REACTORS
330
42
102
}
330
42
100
AcDbScale
 70
     0
300
1/4" = 1'-0"
140
0.25
141
12.0
290
     0
  0
SCALE
  5
4C
102
{ACAD_REACTORS
330
42
102
}
330
42
100
AcDbScale
 70
     0
300
3/8" = 1'-0"
140
0.375
141
12.0
290
     0
  0
SCALE
  5
4D
102
{ACAD_REACTORS
330
42
102
}
330
42
100
AcDbScale
 70
     0
300
1/2" = 1'-0"
140
0.5
141
12.0
290
     0
  0
SCALE
  5
4E
102
{ACAD_REACTORS
330
42
102
}
330
42
100
AcDbScale
 70
     0
300
3/4" = 1'-0"
140
0.75
141
12.0
290
     0
  0
SCALE
  5
4F
102
{ACAD_REACTORS
330
42
102
}
330
42
100
AcDbScale
 70
     0
300
1" = 1'-0"
140
1.0
141
12.0
290
     0
  0
SCALE
  5
50
102
{ACAD_REACTORS
330
42
102
}
330
42
100
AcDbScale
 70
     0
300
1-1/2" = 1'-0"
140
1.5
141
12.0
290
     0
  0
SCALE
  5
51
102
{ACAD_REACTORS
330
42
102
}
330
42
100
AcDbScale
 70
     0
300
3" = 1'-0"
140
3.0
141
12.0
290
     0
  0
SCALE
  5
52
102
{ACAD_REACTORS
330
42
102
}
330
42
100
AcDbScale
 70
     0
300
6" = 1'-0"
140
6.0
141
12.0
290
     0
  0
SCALE
  5
53
102
{ACAD_REACTORS
330
42
102
}
330
42
100
AcDbScale
 70
     0
300
1'-0" = 1'-0"
140
12.0
141
12.0
290
     0
  0
ACDBSECTIONVIEWSTYLE
  5
68
102
{ACAD_REACTORS
330
67
102
}
330
67
100
AcDbModelDocViewStyle
 70
     0
  3
Imperial24
290
     0
300
Imperial24
 90
        0
100
AcDbSectionViewStyle
 70
     0
 71
     0
 90
       78
 71
     1
340
55
 62
   256
 40
0.24
340
0
340
0
 62
   256
 40
0.24
300
I, O, Q, S, X, Z
 40
0.48
 90
        3
 40
0.18
 90
        1
 71
     2
340
5C
 90
       25
 62
   256
340
5C
 90
       50
 62
   256
 40
0.24
 40
0.0
 40
0.24
 71
     3
340
55
 62
   256
 40
0.24
 90
        1
 40
0.75
 90
        1
300
%<\AcVar ViewType \f "%tc1">% %<\AcVar ViewSectionStartId>%-%<\AcVar ViewSectionEndId>%\PSCALE %<\AcVar ViewScale \f "%sn">%
 71
     4
 62
   256
 62
   257
300
ANSI31
 40
1.0
 90
        0
290
     0
290
     0
 90
        6
 40
0.0
 40
1.570796326794896
 40
0.2617993877991494
 40
1.308996938995747
 40
-0.2617993877991494
 40
1.832595714594044
  0
TABLESTYLE
  5
64
102
{ACAD_XDICTIONARY
360
90E
102
}
102
{ACAD_REACTORS
330
63
102
}
330
63
100
AcDbTableStyle
280
     0
  3
Standard
 70
     0
 71
     0
 40
0.06
 41
0.06
280
     0
281
     0
  7
Standard
140
0.18
170
     2
 62
     0
 63
     7
283
     0
 90
      512
 91
        0
  1

274
    -2
284
     1
 64
     0
275
    -2
285
     1
 65
     0
276
    -2
286
     1
 66
     0
277
    -2
287
     1
 67
     0
278
    -2
288
     1
 68
     0
279
    -2
289
     1
 69
     0
  7
Standard
140
0.25
170
     5
 62
     0
 63
     7
283
     0
 90
      512
 91
        0
  1

274
    -2
284
     1
 64
     0
275
    -2
285
     1
 65
     0
276
    -2
286
     1
 66
     0
277
    -2
287
     1
 67
     0
278
    -2
288
     1
 68
     0
279
    -2
289
     1
 69
     0
  7
Standard
140
0.18
170
     5
 62
     0
 63
     7
283
     0
 90
      512
 91
        0
  1

274
    -2
284
     1
 64
     0
275
    -2
285
     1
 65
     0
276
    -2
286
     1
 66
     0
277
    -2
287
     1
 67
     0
278
    -2
288
     1
 68
     0
279
    -2
289
     1
 69
     0
  0
VISUALSTYLE
  5
2F
102
{ACAD_REACTORS
330
29
102
}
330
29
100
AcDbVisualStyle
  2
2dWireframe
 70
     4
177
     3
291
     0
 70
    58
 90
        0
176
     1
 90
        2
176
     1
 90
        0
176
     1
 90
        0
176
     1
 40
0.6
176
     1
 40
30.0
176
     1
 62
     7
420
 16777215
176
     1
 90
        1
176
     1
 90
        4
176
     1
 62
     7
176
     1
 62
   257
176
     1
 90
        1
176
     1
 90
        1
176
     1
 40
1.0
176
     1
 90
        0
176
     1
 62
   257
176
     1
 40
1.0
176
     1
 90
        1
176
     1
 90
        6
176
     1
 90
        2
176
     1
 62
     7
176
     1
 90
        5
176
     1
 90
        0
176
     1
 90
        0
176
     1
290
     0
176
     1
 90
        1
176
     1
 40
0.0
176
     1
 90
        0
176
     1
290
     1
176
     1
290
     1
176
     1
290
     0
176
     1
290
     0
176
     1
290
     0
176
     1
290
     0
176
     1
290
     0
176
     1
290
     0
176
     1
290
     0
176
     1
 90
       50
176
     1
 40
0.0
176
     1
 40
1.0
176
     1
 90
        0
176
     1
 62
    18
176
     1
 90
       50
176
     1
 90
        3
176
     1
 62
     5
420
      255
176
     1
290
     0
176
     1
 90
       50
176
     1
 90
       50
176
     1
 90
       50
176
     1
290
     0
176
     1
 90
       50
176
     1
 62
   256
176
     0
 40
1.0
176
     0
 90
        2
176
     1
  1
strokes_ogs.tif
176
     1
290
     0
176
     1
 40
1.0
176
     1
 40
1.0
176
     1
  0
VISUALSTYLE
  5
2E
102
{ACAD_REACTORS
330
29
102
}
330
29
100
AcDbVisualStyle
  2
Basic
 70
     7
177
     3
291
     1
 70
    58
 90
        1
176
     1
 90
        0
176
     1
 90
        1
176
     1
 90
        0
176
     1
 40
0.6
176
     1
 40
30.0
176
     1
 62
     7
420
 16777215
176
     1
 90
        0
176
     1
 90
        4
176
     1
 62
     7
176
     1
 62
   257
176
     1
 90
        1
176
     1
 90
        1
176
     1
 40
1.0
176
     1
 90
        8
176
     1
 62
     7
176
     1
 40
1.0
176
     1
 90
        1
176
     1
 90
        6
176
     1
 90
        2
176
     1
 62
     7
176
     1
 90
        5
176
     1
 90
        0
176
     1
 90
        0
176
     1
290
     0
176
     1
 90
        1
176
     1
 40
0.0
176
     1
 90
        0
176
     1
290
     0
176
     1
290
     1
176
     1
290
     1
176
     1
290
     0
176
     1
290
     0
176
     1
290
     0
176
     1
290
     0
176
     1
290
     0
176
     1
290
     0
176
     1
 90
       50
176
     1
 40
0.0
176
     1
 40
1.0
176
     1
 90
        0
176
     1
 62
    18
176
     1
 90
       50
176
     1
 90
        3
176
     1
 62
     5
420
      255
176
     1
290
     0
176
     1
 90
       50
176
     1
 90
       50
176
     1
 90
       50
176
     1
290
     0
176
     1
 90
       50
176
     1
 62
   256
176
     0
 40
1.0
176
     0
 90
        2
176
     1
  1
strokes_ogs.tif
176
     1
290
     0
176
     1
 40
1.0
176
     1
 40
1.0
176
     1
  0
VISUALSTYLE
  5
35
102
{ACAD_REACTORS
330
29
102
}
330
29
100
AcDbVisualStyle
  2
Brighten
 70
    12
177
     3
291
     1
 70
    58
 90
        2
176
     1
 90
        2
176
     1
 90
        0
176
     1
 90
        0
176
     1
 40
0.6
176
     1
 40
30.0
176
     1
 62
     7
420
 16777215
176
     1
 90
        1
176
     1
 90
        4
176
     1
 62
     7
176
     1
 62
   257
176
     1
 90
        1
176
     1
 90
        1
176
     1
 40
1.0
176
     1
 90
        8
176
     1
 62
     7
176
     1
 40
1.0
176
     1
 90
        1
176
     1
 90
        6
176
     1
 90
        2
176
     1
 62
     7
176
     1
 90
        5
176
     1
 90
        0
176
     1
 90
        0
176
     1
290
     0
176
     1
 90
        1
176
     1
 40
50.0
176
     1
 90
        0
176
     1
290
     0
176
     1
290
     1
176
     1
290
     1
176
     1
290
     0
176
     1
290
     0
176
     1
290
     0
176
     1
290
     0
176
     1
290
     0
176
     1
290
     0
176
     1
 90
       50
176
     1
 40
0.0
176
     1
 40
1.0
176
     1
 90
        0
176
     1
 62
    18
176
     1
 90
       50
176
     1
 90
        3
176
     1
 62
     5
420
      255
176
     1
290
     0
176
     1
 90
       50
176
     1
 90
       50
176
     1
 90
       50
176
     1
290
     0
176
     1
 90
       50
176
     1
 62
   256
176
     0
 40
1.0
176
     0
 90
        2
176
     1
  1
strokes_ogs.tif
176
     1
290
     0
176
     1
 40
1.0
176
     1
 40
1.0
176
     1
  0
VISUALSTYLE
  5
39
102
{ACAD_REACTORS
330
29
102
}
330
29
100
AcDbVisualStyle
  2
ColorChange
 70
    16
177
     3
291
     1
 70
    58
 90
        2
176
     1
 90
        2
176
     1
 90
        3
176
     1
 90
        0
176
     1
 40
0.6
176
     1
 40
30.0
176
     1
 62
     8
420
  8421504
176
     1
 90
        1
176
     1
 90
        4
176
     1
 62
     7
176
     1
 62
   257
176
     1
 90
        1
176
     1
 90
        1
176
     1
 40
1.0
176
     1
 90
        8
176
     1
 62
     8
420
  8421504
176
     1
 40
1.0
176
     1
 90
        1
176
     1
 90
        6
176
     1
 90
        2
176
     1
 62
     7
176
     1
 90
        5
176
     1
 90
        0
176
     1
 90
        0
176
     1
290
     0
176
     1
 90
        1
176
     1
 40
0.0
176
     1
 90
        0
176
     1
290
     0
176
     1
290
     1
176
     1
290
     1
176
     1
290
     0
176
     1
290
     0
176
     1
290
     0
176
     1
290
     0
176
     1
290
     0
176
     1
290
     0
176
     1
 90
       50
176
     1
 40
0.0
176
     1
 40
1.0
176
     1
 90
        0
176
     1
 62
    18
176
     1
 90
       50
176
     1
 90
        3
176
     1
 62
     5
420
      255
176
     1
290
     0
176
     1
 90
       50
176
     1
 90
       50
176
     1
 90
       50
176
     1
290
     0
176
     1
 90
       50
176
     1
 62
   256
176
     0
 40
1.0
176
     0
 90
        2
176
     1
  1
strokes_ogs.tif
176
     1
290
     0
176
     1
 40
1.0
176
     1
 40
1.0
176
     1
  0
VISUALSTYLE
  5
32
102
{ACAD_REACTORS
330
29
102
}
330
29
100
AcDbVisualStyle
  2
Conceptual
 70
     9
177
     3
291
     0
 70
    58
 90
        3
176
     1
 90
        2
176
     1
 90
        0
176
     1
 90
        0
176
     1
 40
0.6
176
     1
 40
30.0
176
     1
 62
     7
420
 16777215
176
     1
 90
        2
176
     1
 90
        2
176
     1
 62
     7
176
     1
 62
   257
176
     1
 90
        1
176
     1
 90
        1
176
     1
 40
179.0
176
     1
 90
        8
176
     1
 62
     7
176
     1
 40
1.0
176
     1
 90
        1
176
     1
 90
        6
176
     1
 90
        2
176
     1
 62
     7
176
     1
 90
        3
176
     1
 90
        0
176
     1
 90
        0
176
     1
290
     0
176
     1
 90
        1
176
     1
 40
0.0
176
     1
 90
        0
176
     1
290
     0
176
     1
290
     1
176
     1
290
     1
176
     1
290
     0
176
     1
290
     0
176
     1
290
     0
176
     1
290
     0
176
     1
290
     0
176
     1
290
     0
176
     1
 90
       50
176
     1
 40
0.0
176
     1
 40
1.0
176
     1
 90
        0
176
     1
 62
    18
176
     1
 90
       50
176
     1
 90
        3
176
     1
 62
     5
420
      255
176
     1
290
     0
176
     1
 90
       50
176
     1
 90
       50
176
     1
 90
       50
176
     1
290
     0
176
     1
 90
       50
176
     1
 62
   256
176
     0
 40
1.0
176
     0
 90
        2
176
     1
  1
strokes_ogs.tif
176
     1
290
     0
176
     1
 40
1.0
176
     1
 40
1.0
176
     1
  0
VISUALSTYLE
  5
34
102
{ACAD_REACTORS
330
29
102
}
330
29
100
AcDbVisualStyle
  2
Dim
 70
    11
177
     3
291
     1
 70
    58
 90
        2
176
     1
 90
        2
176
     1
 90
        0
176
     1
 90
        0
176
     1
 40
0.6
176
     1
 40
30.0
176
     1
 62
     7
420
 16777215
176
     1
 90
        1
176
     1
 90
        4
176
     1
 62
     7
176
     1
 62
   257
176
     1
 90
        1
176
     1
 90
        1
176
     1
 40
1.0
176
     1
 90
        8
176
     1
 62
     7
176
     1
 40
1.0
176
     1
 90
        1
176
     1
 90
        6
176
     1
 90
        2
176
     1
 62
     7
176
     1
 90
        5
176
     1
 90
        0
176
     1
 90
        0
176
     1
290
     0
176
     1
 90
        1
176
     1
 40
-50.0
176
     1
 90
        0
176
     1
290
     0
176
     1
290
     1
176
     1
290
     1
176
     1
290
     0
176
     1
290
     0
176
     1
290
     0
176
     1
290
     0
176
     1
290
     0
176
     1
290
     0
176
     1
 90
       50
176
     1
 40
0.0
176
     1
 40
1.0
176
     1
 90
        0
176
     1
 62
    18
176
     1
 90
       50
176
     1
 90
        3
176
     1
 62
     5
420
      255
176
     1
290
     0
176
     1
 90
       50
176
     1
 90
       50
176
     1
 90
       50
176
     1
290
     0
176
     1
 90
       50
176
     1
 62
   256
176
     0
 40
1.0
176
     0
 90
        2
176
     1
  1
strokes_ogs.tif
176
     1
290
     0
176
     1
 40
1.0
176
     1
 40
1.0
176
     1
  0
VISUALSTYLE
  5
41
102
{ACAD_REACTORS
330
29
102
}
330
29
100
AcDbVisualStyle
  2
EdgeColorOff
 70
    22
177
     3
291
     1
 70
    58
 90
        2
176
     0
 90
        2
176
     0
 90
        0
176
     0
 90
        0
176
     0
 40
0.6
176
     0
 40
30.0
176
     0
 62
     7
420
 16777215
176
     0
 90
        1
176
     0
 90
        4
176
     0
 62
     7
176
     0
 62
   257
176
     0
 90
        1
176
     0
 90
        1
176
     0
 40
1.0
176
     0
 90
        8
176
     2
 62
     7
176
     0
 40
1.0
176
     0
 90
        1
176
     0
 90
        6
176
     0
 90
        2
176
     0
 62
     7
176
     0
 90
        5
176
     0
 90
        0
176
     0
 90
        0
176
     0
290
     0
176
     0
 90
        1
176
     0
 40
0.0
176
     0
 90
        0
176
     0
290
     0
176
     1
290
     1
176
     1
290
     1
176
     1
290
     0
176
     1
290
     0
176
     1
290
     0
176
     1
290
     0
176
     1
290
     0
176
     1
290
     0
176
     1
 90
       50
176
     0
 40
0.0
176
     0
 40
1.0
176
     0
 90
        0
176
     0
 62
    18
176
     0
 90
       50
176
     0
 90
        3
176
     0
 62
     5
420
      255
176
     0
290
     0
176
     1
 90
       50
176
     0
 90
       50
176
     0
 90
       50
176
     0
290
     0
176
     1
 90
       50
176
     0
 62
   256
176
     0
 40
1.0
176
     0
 90
        2
176
     0
  1
strokes_ogs.tif
176
     0
290
     0
176
     1
 40
1.0
176
     0
 40
1.0
176
     0
  0
VISUALSTYLE
  5
38
102
{ACAD_REACTORS
330
29
102
}
330
29
100
AcDbVisualStyle
  2
Facepattern
 70
    15
177
     3
291
     1
 70
    58
 90
        2
176
     1
 90
        2
176
     1
 90
        0
176
     1
 90
        0
176
     1
 40
0.6
176
     1
 40
30.0
176
     1
 62
     7
420
 16777215
176
     1
 90
        1
176
     1
 90
        4
176
     1
 62
     7
176
     1
 62
   257
176
     1
 90
        1
176
     1
 90
        1
176
     1
 40
1.0
176
     1
 90
        8
176
     1
 62
     7
176
     1
 40
1.0
176
     1
 90
        1
176
     1
 90
        6
176
     1
 90
        2
176
     1
 62
     7
176
     1
 90
        5
176
     1
 90
        0
176
     1
 90
        0
176
     1
290
     0
176
     1
 90
        1
176
     1
 40
0.0
176
     1
 90
        0
176
     1
290
     0
176
     1
290
     1
176
     1
290
     1
176
     1
290
     0
176
     1
290
     0
176
     1
290
     0
176
     1
290
     0
176
     1
290
     0
176
     1
290
     0
176
     1
 90
       50
176
     1
 40
0.0
176
     1
 40
1.0
176
     1
 90
        0
176
     1
 62
    18
176
     1
 90
       50
176
     1
 90
        3
176
     1
 62
     5
420
      255
176
     1
290
     0
176
     1
 90
       50
176
     1
 90
       50
176
     1
 90
       50
176
     1
290
     0
176
     1
 90
       50
176
     1
 62
   256
176
     0
 40
1.0
176
     0
 90
        2
176
     1
  1
strokes_ogs.tif
176
     1
290
     0
176
     1
 40
1.0
176
     1
 40
1.0
176
     1
  0
VISUALSTYLE
  5
2A
102
{ACAD_REACTORS
330
29
102
}
330
29
100
AcDbVisualStyle
  2
Flat
 70
     0
177
     3
291
     1
 70
    58
 90
        2
176
     1
 90
        1
176
     1
 90
        1
176
     1
 90
        2
176
     1
 40
0.6
176
     1
 40
30.0
176
     1
 62
     7
420
 16777215
176
     1
 90
        0
176
     1
 90
        0
176
     1
 62
     7
176
     1
 62
   257
176
     1
 90
        1
176
     1
 90
        1
176
     1
 40
1.0
176
     1
 90
        8
176
     1
 62
     7
176
     1
 40
1.0
176
     1
 90
        1
176
     1
 90
        6
176
     1
 90
        2
176
     1
 62
     7
176
     1
 90
        5
176
     1
 90
        0
176
     1
 90
        0
176
     1
290
     0
176
     1
 90
       13
176
     1
 40
0.0
176
     1
 90
        0
176
     1
290
     0
176
     1
290
     1
176
     1
290
     1
176
     1
290
     0
176
     1
290
     0
176
     1
290
     0
176
     1
290
     0
176
     1
290
     0
176
     1
290
     0
176
     1
 90
       50
176
     1
 40
0.0
176
     1
 40
1.0
176
     1
 90
        0
176
     1
 62
    18
176
     1
 90
       50
176
     1
 90
        3
176
     1
 62
     5
420
      255
176
     1
290
     0
176
     1
 90
       50
176
     1
 90
       50
176
     1
 90
       50
176
     1
290
     0
176
     1
 90
       50
176
     1
 62
   256
176
     0
 40
1.0
176
     0
 90
        2
176
     1
  1
strokes_ogs.tif
176
     1
290
     0
176
     1
 40
1.0
176
     1
 40
1.0
176
     1
  0
VISUALSTYLE
  5
2B
102
{ACAD_REACTORS
330
29
102
}
330
29
100
AcDbVisualStyle
  2
FlatWithEdges
 70
     1
177
     3
291
     1
 70
    58
 90
        2
176
     1
 90
        1
176
     1
 90
        1
176
     1
 90
        2
176
     1
 40
0.6
176
     1
 40
30.0
176
     1
 62
     7
420
 16777215
176
     1
 90
        1
176
     1
 90
        0
176
     1
 62
     7
176
     1
 62
   257
176
     1
 90
        1
176
     1
 90
        1
176
     1
 40
1.0
176
     1
 90
        0
176
     1
 62
   257
176
     1
 40
1.0
176
     1
 90
        1
176
     1
 90
        6
176
     1
 90
        2
176
     1
 62
     7
176
     1
 90
        5
176
     1
 90
        0
176
     1
 90
        0
176
     1
290
     0
176
     1
 90
       13
176
     1
 40
0.0
176
     1
 90
        0
176
     1
290
     0
176
     1
290
     1
176
     1
290
     1
176
     1
290
     0
176
     1
290
     0
176
     1
290
     0
176
     1
290
     0
176
     1
290
     0
176
     1
290
     0
176
     1
 90
       50
176
     1
 40
0.0
176
     1
 40
1.0
176
     1
 90
        0
176
     1
 62
    18
176
     1
 90
       50
176
     1
 90
        3
176
     1
 62
     5
420
      255
176
     1
290
     0
176
     1
 90
       50
176
     1
 90
       50
176
     1
 90
       50
176
     1
290
     0
176
     1
 90
       50
176
     1
 62
   256
176
     0
 40
1.0
176
     0
 90
        2
176
     1
  1
strokes_ogs.tif
176
     1
290
     0
176
     1
 40
1.0
176
     1
 40
1.0
176
     1
  0
VISUALSTYLE
  5
2C
102
{ACAD_REACTORS
330
29
102
}
330
29
100
AcDbVisualStyle
  2
Gouraud
 70
     2
177
     3
291
     1
 70
    58
 90
        2
176
     1
 90
        2
176
     1
 90
        1
176
     1
 90
        2
176
     1
 40
0.6
176
     1
 40
30.0
176
     1
 62
     7
420
 16777215
176
     1
 90
        0
176
     1
 90
        0
176
     1
 62
     7
176
     1
 62
   257
176
     1
 90
        1
176
     1
 90
        1
176
     1
 40
1.0
176
     1
 90
        0
176
     1
 62
     7
176
     1
 40
1.0
176
     1
 90
        1
176
     1
 90
        6
176
     1
 90
        2
176
     1
 62
     7
176
     1
 90
        5
176
     1
 90
        0
176
     1
 90
        0
176
     1
290
     0
176
     1
 90
       13
176
     1
 40
0.0
176
     1
 90
        0
176
     1
290
     0
176
     1
290
     1
176
     1
290
     1
176
     1
290
     0
176
     1
290
     0
176
     1
290
     0
176
     1
290
     0
176
     1
290
     0
176
     1
290
     0
176
     1
 90
       50
176
     1
 40
0.0
176
     1
 40
1.0
176
     1
 90
        0
176
     1
 62
    18
176
     1
 90
       50
176
     1
 90
        3
176
     1
 62
     5
420
      255
176
     1
290
     0
176
     1
 90
       50
176
     1
 90
       50
176
     1
 90
       50
176
     1
290
     0
176
     1
 90
       50
176
     1
 62
   256
176
     0
 40
1.0
176
     0
 90
        2
176
     1
  1
strokes_ogs.tif
176
     1
290
     0
176
     1
 40
1.0
176
     1
 40
1.0
176
     1
  0
VISUALSTYLE
  5
2D
102
{ACAD_REACTORS
330
29
102
}
330
29
100
AcDbVisualStyle
  2
GouraudWithEdges
 70
     3
177
     3
291
     1
 70
    58
 90
        2
176
     1
 90
        2
176
     1
 90
        1
176
     1
 90
        2
176
     1
 40
0.6
176
     1
 40
30.0
176
     1
 62
     7
420
 16777215
176
     1
 90
        1
176
     1
 90
        0
176
     1
 62
     7
176
     1
 62
   257
176
     1
 90
        1
176
     1
 90
        1
176
     1
 40
1.0
176
     1
 90
        0
176
     1
 62
   257
176
     1
 40
1.0
176
     1
 90
        1
176
     1
 90
        6
176
     1
 90
        2
176
     1
 62
     7
176
     1
 90
        5
176
     1
 90
        0
176
     1
 90
        0
176
     1
290
     0
176
     1
 90
       13
176
     1
 40
0.0
176
     1
 90
        0
176
     1
290
     0
176
     1
290
     1
176
     1
290
     1
176
     1
290
     0
176
     1
290
     0
176
     1
290
     0
176
     1
290
     0
176
     1
290
     0
176
     1
290
     0
176
     1
 90
       50
176
     1
 40
0.0
176
     1
 40
1.0
176
     1
 90
        0
176
     1
 62
    18
176
     1
 90
       50
176
     1
 90
        3
176
     1
 62
     5
420
      255
176
     1
290
     0
176
     1
 90
       50
176
     1
 90
       50
176
     1
 90
       50
176
     1
290
     0
176
     1
 90
       50
176
     1
 62
   256
176
     0
 40
1.0
176
     0
 90
        2
176
     1
  1
strokes_ogs.tif
176
     1
290
     0
176
     1
 40
1.0
176
     1
 40
1.0
176
     1
  0
VISUALSTYLE
  5
31
102
{ACAD_REACTORS
330
29
102
}
330
29
100
AcDbVisualStyle
  2
Hidden
 70
     6
177
     3
291
     0
 70
    58
 90
        1
176
     1
 90
        2
176
     1
 90
        2
176
     1
 90
        0
176
     1
 40
0.6
176
     1
 40
30.0
176
     1
 62
     7
420
 16777215
176
     1
 90
        2
176
     1
 90
        2
176
     1
 62
     7
176
     1
 62
   257
176
     1
 90
        2
176
     1
 90
        1
176
     1
 40
40.0
176
     1
 90
        0
176
     1
 62
   257
176
     1
 40
1.0
176
     1
 90
        1
176
     1
 90
        6
176
     1
 90
        2
176
     1
 62
     7
176
     1
 90
        3
176
     1
 90
        0
176
     1
 90
        0
176
     1
290
     0
176
     1
 90
        1
176
     1
 40
0.0
176
     1
 90
        0
176
     1
290
     0
176
     1
290
     1
176
     1
290
     1
176
     1
290
     0
176
     1
290
     0
176
     1
290
     0
176
     1
290
     0
176
     1
290
     0
176
     1
290
     0
176
     1
 90
       50
176
     1
 40
0.0
176
     1
 40
1.0
176
     1
 90
        0
176
     1
 62
    18
176
     1
 90
       50
176
     1
 90
        3
176
     1
 62
     5
420
      255
176
     1
290
     0
176
     1
 90
       50
176
     1
 90
       50
176
     1
 90
       50
176
     1
290
     0
176
     1
 90
       50
176
     1
 62
   256
176
     0
 40
1.0
176
     0
 90
        2
176
     1
  1
strokes_ogs.tif
176
     1
290
     0
176
     1
 40
1.0
176
     1
 40
1.0
176
     1
  0
VISUALSTYLE
  5
3F
102
{ACAD_REACTORS
330
29
102
}
330
29
100
AcDbVisualStyle
  2
JitterOff
 70
    20
177
     3
291
     1
 70
    58
 90
        2
176
     0
 90
        2
176
     0
 90
        0
176
     0
 90
        0
176
     0
 40
0.6
176
     0
 40
30.0
176
     0
 62
     7
420
 16777215
176
     0
 90
        1
176
     0
 90
        4
176
     0
 62
     7
176
     0
 62
   257
176
     0
 90
        1
176
     0
 90
        1
176
     0
 40
1.0
176
     0
 90
       10
176
     2
 62
     7
176
     0
 40
1.0
176
     0
 90
        1
176
     0
 90
        6
176
     0
 90
        2
176
     0
 62
     7
176
     0
 90
        5
176
     0
 90
        0
176
     0
 90
        0
176
     0
290
     0
176
     0
 90
        1
176
     0
 40
0.0
176
     0
 90
        0
176
     0
290
     0
176
     1
290
     1
176
     1
290
     1
176
     1
290
     0
176
     1
290
     0
176
     1
290
     0
176
     1
290
     0
176
     1
290
     0
176
     1
290
     0
176
     1
 90
       50
176
     0
 40
0.0
176
     0
 40
1.0
176
     0
 90
        0
176
     0
 62
    18
176
     0
 90
       50
176
     0
 90
        3
176
     0
 62
     5
420
      255
176
     0
290
     0
176
     1
 90
       50
176
     0
 90
       50
176
     0
 90
       50
176
     0
290
     0
176
     1
 90
       50
176
     0
 62
   256
176
     0
 40
1.0
176
     0
 90
        2
176
     0
  1
strokes_ogs.tif
176
     0
290
     0
176
     1
 40
1.0
176
     0
 40
1.0
176
     0
  0
VISUALSTYLE
  5
37
102
{ACAD_REACTORS
330
29
102
}
330
29
100
AcDbVisualStyle
  2
Linepattern
 70
    14
177
     3
291
     1
 70
    58
 90
        2
176
     1
 90
        2
176
     1
 90
        0
176
     1
 90
        0
176
     1
 40
0.6
176
     1
 40
30.0
176
     1
 62
     7
420
 16777215
176
     1
 90
        1
176
     1
 90
        4
176
     1
 62
     7
176
     1
 62
   257
176
     1
 90
        7
176
     1
 90
        7
176
     1
 40
1.0
176
     1
 90
        8
176
     1
 62
     7
176
     1
 40
1.0
176
     1
 90
        1
176
     1
 90
        6
176
     1
 90
        2
176
     1
 62
     7
176
     1
 90
        5
176
     1
 90
        0
176
     1
 90
        0
176
     1
290
     0
176
     1
 90
        1
176
     1
 40
0.0
176
     1
 90
        0
176
     1
290
     0
176
     1
290
     1
176
     1
290
     1
176
     1
290
     0
176
     1
290
     0
176
     1
290
     0
176
     1
290
     0
176
     1
290
     0
176
     1
290
     0
176
     1
 90
       50
176
     1
 40
0.0
176
     1
 40
1.0
176
     1
 90
        0
176
     1
 62
    18
176
     1
 90
       50
176
     1
 90
        3
176
     1
 62
     5
420
      255
176
     1
290
     0
176
     1
 90
       50
176
     1
 90
       50
176
     1
 90
       50
176
     1
290
     0
176
     1
 90
       50
176
     1
 62
   256
176
     0
 40
1.0
176
     0
 90
        2
176
     1
  1
strokes_ogs.tif
176
     1
290
     0
176
     1
 40
1.0
176
     1
 40
1.0
176
     1
  0
VISUALSTYLE
  5
40
102
{ACAD_REACTORS
330
29
102
}
330
29
100
AcDbVisualStyle
  2
OverhangOff
 70
    21
177
     3
291
     1
 70
    58
 90
        2
176
     0
 90
        2
176
     0
 90
        0
176
     0
 90
        0
176
     0
 40
0.6
176
     0
 40
30.0
176
     0
 62
     7
420
 16777215
176
     0
 90
        1
176
     0
 90
        4
176
     0
 62
     7
176
     0
 62
   257
176
     0
 90
        1
176
     0
 90
        1
176
     0
 40
1.0
176
     0
 90
        9
176
     2
 62
     7
176
     0
 40
1.0
176
     0
 90
        1
176
     0
 90
        6
176
     0
 90
        2
176
     0
 62
     7
176
     0
 90
        5
176
     0
 90
        0
176
     0
 90
        0
176
     0
290
     0
176
     0
 90
        1
176
     0
 40
0.0
176
     0
 90
        0
176
     0
290
     0
176
     1
290
     1
176
     1
290
     1
176
     1
290
     0
176
     1
290
     0
176
     1
290
     0
176
     1
290
     0
176
     1
290
     0
176
     1
290
     0
176
     1
 90
       50
176
     0
 40
0.0
176
     0
 40
1.0
176
     0
 90
        0
176
     0
 62
    18
176
     0
 90
       50
176
     0
 90
        3
176
     0
 62
     5
420
      255
176
     0
290
     0
176
     1
 90
       50
176
     0
 90
       50
176
     0
 90
       50
176
     0
290
     0
176
     1
 90
       50
176
     0
 62
   256
176
     0
 40
1.0
176
     0
 90
        2
176
     0
  1
strokes_ogs.tif
176
     0
290
     0
176
     1
 40
1.0
176
     0
 40
1.0
176
     0
  0
VISUALSTYLE
  5
33
102
{ACAD_REACTORS
330
29
102
}
330
29
100
AcDbVisualStyle
  2
Realistic
 70
     8
177
     3
291
     0
 70
    58
 90
        2
176
     1
 90
        3
176
     1
 90
        0
176
     1
 90
        2
176
     1
 40
0.6
176
     1
 40
30.0
176
     1
 62
     7
420
 16777215
176
     1
 90
        0
176
     1
 90
        0
176
     1
 62
     7
176
     1
 62
   257
176
     1
 90
        1
176
     1
 90
        1
176
     1
 40
1.0
176
     1
 90
        8
176
     1
 62
   257
176
     1
 40
1.0
176
     1
 90
        1
176
     1
 90
        6
176
     1
 90
        2
176
     1
 62
     7
176
     1
 90
        3
176
     1
 90
        0
176
     1
 90
        0
176
     1
290
     0
176
     1
 90
       13
176
     1
 40
0.0
176
     1
 90
        0
176
     1
290
     0
176
     1
290
     1
176
     1
290
     1
176
     1
290
     0
176
     1
290
     0
176
     1
290
     0
176
     1
290
     0
176
     1
290
     0
176
     1
290
     0
176
     1
 90
       50
176
     1
 40
0.0
176
     1
 40
1.0
176
     1
 90
        0
176
     1
 62
    18
176
     1
 90
       50
176
     1
 90
        3
176
     1
 62
     5
420
      255
176
     1
290
     0
176
     1
 90
       50
176
     1
 90
       50
176
     1
 90
       50
176
     1
290
     0
176
     1
 90
       50
176
     1
 62
   256
176
     0
 40
1.0
176
     0
 90
        2
176
     1
  1
strokes_ogs.tif
176
     1
290
     0
176
     1
 40
1.0
176
     1
 40
1.0
176
     1
  0
VISUALSTYLE
  5
3E
102
{ACAD_REACTORS
330
29
102
}
330
29
100
AcDbVisualStyle
  2
Shaded
 70
    27
177
     3
291
     0
 70
    58
 90
        2
176
     1
 90
        2
176
     1
 90
        1
176
     1
 90
        2
176
     1
 40
0.6
176
     1
 40
30.0
176
     1
 62
     7
420
 16777215
176
     1
 90
        0
176
     1
 90
        4
176
     1
 62
     7
176
     1
 62
   257
176
     1
 90
        1
176
     1
 90
        1
176
     1
 40
1.0
176
     1
 90
        8
176
     1
 62
   257
176
     1
 40
1.0
176
     1
 90
        1
176
     1
 90
        6
176
     1
 90
        2
176
     1
 62
     8
420
  7895160
176
     1
 90
        3
176
     1
 90
        0
176
     1
 90
        0
176
     1
290
     0
176
     1
 90
        5
176
     1
 40
0.0
176
     1
 90
        0
176
     1
290
     0
176
     1
290
     1
176
     1
290
     1
176
     1
290
     0
176
     1
290
     0
176
     1
290
     0
176
     1
290
     0
176
     1
290
     0
176
     1
290
     0
176
     1
 90
       50
176
     1
 40
0.0
176
     1
 40
1.0
176
     1
 90
        0
176
     1
 62
    18
176
     1
 90
       50
176
     1
 90
        3
176
     1
 62
     5
420
      255
176
     1
290
     0
176
     1
 90
       50
176
     1
 90
       50
176
     1
 90
       50
176
     1
290
     0
176
     1
 90
       50
176
     1
 62
   256
176
     0
 40
1.0
176
     0
 90
        2
176
     1
  1
strokes_ogs.tif
176
     1
290
     0
176
     1
 40
1.0
176
     1
 40
1.0
176
     1
  0
VISUALSTYLE
  5
3D
102
{ACAD_REACTORS
330
29
102
}
330
29
100
AcDbVisualStyle
  2
Shaded with edges
 70
    26
177
     3
291
     0
 70
    58
 90
        2
176
     1
 90
        2
176
     1
 90
        1
176
     1
 90
        2
176
     1
 40
0.6
176
     1
 40
30.0
176
     1
 62
     7
420
 16777215
176
     1
 90
        1
176
     1
 90
        2
176
     1
 62
     7
176
     1
 62
   257
176
     1
 90
        2
176
     1
 90
        1
176
     1
 40
1.0
176
     1
 90
        8
176
     1
 62
   257
176
     1
 40
1.0
176
     1
 90
        1
176
     1
 90
        6
176
     1
 90
        2
176
     1
 62
     7
176
     1
 90
        3
176
     1
 90
        0
176
     1
 90
        0
176
     1
290
     0
176
     1
 90
        5
176
     1
 40
0.0
176
     1
 90
        0
176
     1
290
     0
176
     1
290
     1
176
     1
290
     1
176
     1
290
     0
176
     1
290
     0
176
     1
290
     0
176
     1
290
     0
176
     1
290
     0
176
     1
290
     0
176
     1
 90
       50
176
     1
 40
0.0
176
     1
 40
1.0
176
     1
 90
        0
176
     1
 62
    18
176
     1
 90
       50
176
     1
 90
        3
176
     1
 62
     5
420
      255
176
     1
290
     0
176
     1
 90
       50
176
     1
 90
       50
176
     1
 90
       50
176
     1
290
     0
176
     1
 90
       50
176
     1
 62
   256
176
     0
 40
1.0
176
     0
 90
        2
176
     1
  1
strokes_ogs.tif
176
     1
290
     0
176
     1
 40
1.0
176
     1
 40
1.0
176
     1
  0
VISUALSTYLE
  5
3A
102
{ACAD_REACTORS
330
29
102
}
330
29
100
AcDbVisualStyle
  2
Shades of Gray
 70
    23
177
     3
291
     0
 70
    58
 90
        2
176
     1
 90
        2
176
     1
 90
        3
176
     1
 90
        0
176
     1
 40
0.6
176
     1
 40
30.0
176
     1
 62
     7
420
 16777215
176
     1
 90
        2
176
     1
 90
        2
176
     1
 62
     7
176
     1
 62
     7
176
     1
 90
        1
176
     1
 90
        1
176
     1
 40
40.0
176
     1
 90
        8
176
     1
 62
     7
176
     1
 40
1.0
176
     1
 90
        1
176
     1
 90
        6
176
     1
 90
        2
176
     1
 62
     7
176
     1
 90
        3
176
     1
 90
        0
176
     1
 90
        0
176
     1
290
     0
176
     1
 90
        1
176
     1
 40
0.0
176
     1
 90
        0
176
     1
290
     0
176
     1
290
     1
176
     1
290
     1
176
     1
290
     0
176
     1
290
     0
176
     1
290
     0
176
     1
290
     0
176
     1
290
     0
176
     1
290
     0
176
     1
 90
       50
176
     1
 40
0.0
176
     1
 40
1.0
176
     1
 90
        0
176
     1
 62
    18
176
     1
 90
       50
176
     1
 90
        3
176
     1
 62
     5
420
      255
176
     1
290
     0
176
     1
 90
       50
176
     1
 90
       50
176
     1
 90
       50
176
     1
290
     0
176
     1
 90
       50
176
     1
 62
   256
176
     0
 40
1.0
176
     0
 90
        2
176
     1
  1
strokes_ogs.tif
176
     1
290
     0
176
     1
 40
1.0
176
     1
 40
1.0
176
     1
  0
VISUALSTYLE
  5
3B
102
{ACAD_REACTORS
330
29
102
}
330
29
100
AcDbVisualStyle
  2
Sketchy
 70
    24
177
     3
291
     0
 70
    58
 90
        1
176
     1
 90
        2
176
     1
 90
        2
176
     1
 90
        0
176
     1
 40
0.6
176
     1
 40
30.0
176
     1
 62
     7
420
 16777215
176
     1
 90
        2
176
     1
 90
        2
176
     1
 62
     7
176
     1
 62
     7
176
     1
 90
        1
176
     1
 90
        1
176
     1
 40
40.0
176
     1
 90
       11
176
     1
 62
     7
176
     1
 40
1.0
176
     1
 90
        1
176
     1
 90
        6
176
     1
 90
        2
176
     1
 62
     7
176
     1
 90
        6
176
     1
 90
        0
176
     1
 90
        0
176
     1
290
     0
176
     1
 90
        1
176
     1
 40
0.0
176
     1
 90
        0
176
     1
290
     0
176
     1
290
     1
176
     1
290
     1
176
     1
290
     0
176
     1
290
     0
176
     1
290
     0
176
     1
290
     0
176
     1
290
     0
176
     1
290
     0
176
     1
 90
       50
176
     1
 40
0.0
176
     1
 40
1.0
176
     1
 90
        0
176
     1
 62
    18
176
     1
 90
       50
176
     1
 90
        3
176
     1
 62
     5
420
      255
176
     1
290
     0
176
     1
 90
       50
176
     1
 90
       50
176
     1
 90
       50
176
     1
290
     0
176
     1
 90
       50
176
     1
 62
   256
176
     0
 40
1.0
176
     0
 90
        2
176
     1
  1
strokes_ogs.tif
176
     1
290
     0
176
     1
 40
1.0
176
     1
 40
1.0
176
     1
  0
VISUALSTYLE
  5
36
102
{ACAD_REACTORS
330
29
102
}
330
29
100
AcDbVisualStyle
  2
Thicken
 70
    13
177
     3
291
     1
 70
    58
 90
        2
176
     1
 90
        2
176
     1
 90
        0
176
     1
 90
        0
176
     1
 40
0.6
176
     1
 40
30.0
176
     1
 62
     7
420
 16777215
176
     1
 90
        1
176
     1
 90
        4
176
     1
 62
     7
176
     1
 62
   257
176
     1
 90
        1
176
     1
 90
        1
176
     1
 40
1.0
176
     1
 90
       12
176
     1
 62
     7
176
     1
 40
1.0
176
     1
 90
        1
176
     1
 90
        6
176
     1
 90
        2
176
     1
 62
     7
176
     1
 90
        5
176
     1
 90
        0
176
     1
 90
        0
176
     1
290
     0
176
     1
 90
        1
176
     1
 40
0.0
176
     1
 90
        0
176
     1
290
     0
176
     1
290
     1
176
     1
290
     1
176
     1
290
     0
176
     1
290
     0
176
     1
290
     0
176
     1
290
     0
176
     1
290
     0
176
     1
290
     0
176
     1
 90
       50
176
     1
 40
0.0
176
     1
 40
1.0
176
     1
 90
        0
176
     1
 62
    18
176
     1
 90
       50
176
     1
 90
        3
176
     1
 62
     5
420
      255
176
     1
290
     0
176
     1
 90
       50
176
     1
 90
       50
176
     1
 90
       50
176
     1
290
     0
176
     1
 90
       50
176
     1
 62
   256
176
     0
 40
1.0
176
     0
 90
        2
176
     1
  1
strokes_ogs.tif
176
     1
290
     0
176
     1
 40
1.0
176
     1
 40
1.0
176
     1
  0
VISUALSTYLE
  5
30
102
{ACAD_REACTORS
330
29
102
}
330
29
100
AcDbVisualStyle
  2
Wireframe
 70
     5
177
     3
291
     0
 70
    58
 90
        0
176
     1
 90
        2
176
     1
 90
        0
176
     1
 90
        0
176
     1
 40
0.6
176
     1
 40
30.0
176
     1
 62
     7
420
 16777215
176
     1
 90
        1
176
     1
 90
        4
176
     1
 62
     7
176
     1
 62
   257
176
     1
 90
        1
176
     1
 90
        1
176
     1
 40
1.0
176
     1
 90
        0
176
     1
 62
   257
176
     1
 40
1.0
176
     1
 90
        1
176
     1
 90
        6
176
     1
 90
        2
176
     1
 62
     7
176
     1
 90
        3
176
     1
 90
        0
176
     1
 90
        0
176
     1
290
     0
176
     1
 90
        1
176
     1
 40
0.0
176
     1
 90
        0
176
     1
290
     0
176
     1
290
     1
176
     1
290
     1
176
     1
290
     0
176
     1
290
     0
176
     1
290
     0
176
     1
290
     0
176
     1
290
     0
176
     1
290
     0
176
     1
 90
       50
176
     1
 40
0.0
176
     1
 40
1.0
176
     1
 90
        0
176
     1
 62
    18
176
     1
 90
       50
176
     1
 90
        3
176
     1
 62
     5
420
      255
176
     1
290
     0
176
     1
 90
       50
176
     1
 90
       50
176
     1
 90
       50
176
     1
290
     0
176
     1
 90
       50
176
     1
 62
   256
176
     0
 40
1.0
176
     0
 90
        2
176
     1
  1
strokes_ogs.tif
176
     1
290
     0
176
     1
 40
1.0
176
     1
 40
1.0
176
     1
  0
VISUALSTYLE
  5
3C
102
{ACAD_REACTORS
330
29
102
}
330
29
100
AcDbVisualStyle
  2
X-Ray
 70
    25
177
     3
291
     0
 70
    58
 90
        2
176
     1
 90
        2
176
     1
 90
        1
176
     1
 90
        1
176
     1
 40
0.5
176
     1
 40
30.0
176
     1
 62
     7
420
 16777215
176
     1
 90
        1
176
     1
 90
        0
176
     1
 62
     7
176
     1
 62
   257
176
     1
 90
        1
176
     1
 90
        1
176
     1
 40
1.0
176
     1
 90
        8
176
     1
 62
     7
176
     1
 40
1.0
176
     1
 90
        1
176
     1
 90
        6
176
     1
 90
        2
176
     1
 62
     7
176
     1
 90
        3
176
     1
 90
        0
176
     1
 90
        0
176
     1
290
     0
176
     1
 90
       13
176
     1
 40
0.0
176
     1
 90
        0
176
     1
290
     0
176
     1
290
     1
176
     1
290
     1
176
     1
290
     0
176
     1
290
     0
176
     1
290
     0
176
     1
290
     0
176
     1
290
     0
176
     1
290
     0
176
     1
 90
       50
176
     1
 40
0.0
176
     1
 40
1.0
176
     1
 90
        0
176
     1
 62
    18
176
     1
 90
       50
176
     1
 90
        3
176
     1
 62
     5
420
      255
176
     1
290
     0
176
     1
 90
       50
176
     1
 90
       50
176
     1
 90
       50
176
     1
290
     0
176
     1
 90
       50
176
     1
 62
   256
176
     0
 40
1.0
176
     0
 90
        2
176
     1
  1
strokes_ogs.tif
176
     1
290
     0
176
     1
 40
1.0
176
     1
 40
1.0
176
     1
  0
DICTIONARYVAR
  5
428
102
{ACAD_REACTORS
330
422
102
}
330
422
100
DictionaryVariables
280
     0
  1
1:1
  0
DICTIONARYVAR
  5
424
102
{ACAD_REACTORS
330
422
102
}
330
422
100
DictionaryVariables
280
     0
  1
STANDARD
  0
DICTIONARYVAR
  5
423
102
{ACAD_REACTORS
330
422
102
}
330
422
100
DictionaryVariables
280
     0
  1
STANDARD
  0
DICTIONARYVAR
  5
425
102
{ACAD_REACTORS
330
422
102
}
330
422
100
DictionaryVariables
280
     0
  1
Imperial24
  0
DICTIONARYVAR
  5
426
102
{ACAD_REACTORS
330
422
102
}
330
422
100
DictionaryVariables
280
     0
  1
Imperial24
  0
DICTIONARYVAR
  5
42A
102
{ACAD_REACTORS
330
422
102
}
330
422
100
DictionaryVariables
280
     0
  1
1
  0
DICTIONARYVAR
  5
42B
102
{ACAD_REACTORS
330
422
102
}
330
422
100
DictionaryVariables
280
     0
  1
15
  0
DICTIONARYVAR
  5
429
102
{ACAD_REACTORS
330
422
102
}
330
422
100
DictionaryVariables
280
     0
  1
2
  0
DICTIONARYVAR
  5
427
102
{ACAD_REACTORS
330
422
102
}
330
422
100
DictionaryVariables
280
     0
  1
0
  0
DICTIONARY
  5
1A
330
19
100
AcDbDictionary
280
     1
281
     1
  3
BUMPTILE
360
1C
  3
DIFFUSETILE
360
1B
  3
OPACITYTILE
360
1F
  3
REFLECTIONTILE
360
1E
  3
REFRACTIONTILE
360
20
  3
SPECULARTILE
360
1D
  0
DICTIONARY
  5
12
330
11
100
AcDbDictionary
280
     1
281
     1
  3
BUMPTILE
360
14
  3
DIFFUSETILE
360
13
  3
OPACITYTILE
360
17
  3
REFLECTIONTILE
360
16
  3
REFRACTIONTILE
360
18
  3
SPECULARTILE
360
15
  0
DICTIONARY
  5
22
330
21
100
AcDbDictionary
280
     1
281
     1
  3
BUMPTILE
360
24
  3
DIFFUSETILE
360
23
  3
OPACITYTILE
360
27
  3
REFLECTIONTILE
360
26
  3
REFRACTIONTILE
360
28
  3
SPECULARTILE
360
25
  0
DICTIONARY
  5
90E
330
64
100
AcDbDictionary
280
     1
281
     1
  3
ACAD_ROUNDTRIP_2008_TABLESTYLE_CELLSTYLEMAP
360
E60
  0
XRECORD
  5
1C
102
{ACAD_REACTORS
330
1A
102
}
330
1A
100
AcDbXrecord
280
     1
270
     1
271
     1
  0
XRECORD
  5
1B
102
{ACAD_REACTORS
330
1A
102
}
330
1A
100
AcDbXrecord
280
     1
270
     1
271
     1
  0
XRECORD
  5
1F
102
{ACAD_REACTORS
330
1A
102
}
330
1A
100
AcDbXrecord
280
     1
270
     1
271
     1
  0
XRECORD
  5
1E
102
{ACAD_REACTORS
330
1A
102
}
330
1A
100
AcDbXrecord
280
     1
270
     1
271
     1
  0
XRECORD
  5
20
102
{ACAD_REACTORS
330
1A
102
}
330
1A
100
AcDbXrecord
280
     1
270
     1
271
     1
  0
XRECORD
  5
1D
102
{ACAD_REACTORS
330
1A
102
}
330
1A
100
AcDbXrecord
280
     1
270
     1
271
     1
  0
XRECORD
  5
14
102
{ACAD_REACTORS
330
12
102
}
330
12
100
AcDbXrecord
280
     1
270
     1
271
     1
  0
XRECORD
  5
13
102
{ACAD_REACTORS
330
12
102
}
330
12
100
AcDbXrecord
280
     1
270
     1
271
     1
  0
XRECORD
  5
17
102
{ACAD_REACTORS
330
12
102
}
330
12
100
AcDbXrecord
280
     1
270
     1
271
     1
  0
XRECORD
  5
16
102
{ACAD_REACTORS
330
12
102
}
330
12
100
AcDbXrecord
280
     1
270
     1
271
     1
  0
XRECORD
  5
18
102
{ACAD_REACTORS
330
12
102
}
330
12
100
AcDbXrecord
280
     1
270
     1
271
     1
  0
XRECORD
  5
15
102
{ACAD_REACTORS
330
12
102
}
330
12
100
AcDbXrecord
280
     1
270
     1
271
     1
  0
XRECORD
  5
24
102
{ACAD_REACTORS
330
22
102
}
330
22
100
AcDbXrecord
280
     1
270
     1
271
     1
  0
XRECORD
  5
23
102
{ACAD_REACTORS
330
22
102
}
330
22
100
AcDbXrecord
280
     1
270
     1
271
     1
  0
XRECORD
  5
27
102
{ACAD_REACTORS
330
22
102
}
330
22
100
AcDbXrecord
280
     1
270
     1
271
     1
  0
XRECORD
  5
26
102
{ACAD_REACTORS
330
22
102
}
330
22
100
AcDbXrecord
280
     1
270
     1
271
     1
  0
XRECORD
  5
28
102
{ACAD_REACTORS
330
22
102
}
330
22
100
AcDbXrecord
280
     1
270
     1
271
     1
  0
XRECORD
  5
25
102
{ACAD_REACTORS
330
22
102
}
330
22
100
AcDbXrecord
280
     1
270
     1
271
     1
  0
CELLSTYLEMAP
  5
E60
102
{ACAD_REACTORS
330
90E
102
}
330
90E
100
AcDbCellStyleMap
 90
        3
300
CELLSTYLE
  1
TABLEFORMAT_BEGIN
 90
        5
170
     1
 91
        0
 92
    32768
 62
   257
 93
        1
300
CONTENTFORMAT
  1
CONTENTFORMAT_BEGIN
 90
        0
 91
        0
 92
      512
 93
        0
300

 40
0.0
140
1.0
 94
        5
 62
     0
340
55
144
0.25
309
CONTENTFORMAT_END
171
     1
301
MARGIN
  1
CELLMARGIN_BEGIN
 40
0.06
 40
0.06
 40
0.06
 40
0.06
 40
0.18
 40
0.18
309
CELLMARGIN_END
 94
        6
 95
        1
302
GRIDFORMAT
  1
GRIDFORMAT_BEGIN
 90
        0
 91
        1
 62
     0
 92
       -2
340
0
 93
        0
 40
0.045
309
GRIDFORMAT_END
 95
        2
302
GRIDFORMAT
  1
GRIDFORMAT_BEGIN
 90
        0
 91
        1
 62
     0
 92
       -2
340
0
 93
        0
 40
0.045
309
GRIDFORMAT_END
 95
        4
302
GRIDFORMAT
  1
GRIDFORMAT_BEGIN
 90
        0
 91
        1
 62
     0
 92
       -2
340
0
 93
        0
 40
0.045
309
GRIDFORMAT_END
 95
        8
302
GRIDFORMAT
  1
GRIDFORMAT_BEGIN
 90
        0
 91
        1
 62
     0
 92
       -2
340
0
 93
        0
 40
0.045
309
GRIDFORMAT_END
 95
       16
302
GRIDFORMAT
  1
GRIDFORMAT_BEGIN
 90
        0
 91
        1
 62
     0
 92
       -2
340
0
 93
        0
 40
0.045
309
GRIDFORMAT_END
 95
       32
302
GRIDFORMAT
  1
GRIDFORMAT_BEGIN
 90
        0
 91
        1
 62
     0
 92
       -2
340
0
 93
        0
 40
0.045
309
GRIDFORMAT_END
309
TABLEFORMAT_END
  1
CELLSTYLE_BEGIN
 90
        1
 91
        1
300
_TITLE
309
CELLSTYLE_END
300
CELLSTYLE
  1
TABLEFORMAT_BEGIN
 90
        5
170
     1
 91
        0
 92
        0
 62
   257
 93
        1
300
CONTENTFORMAT
  1
CONTENTFORMAT_BEGIN
 90
        0
 91
        0
 92
      512
 93
        0
300

 40
0.0
140
1.0
 94
        5
 62
     0
340
55
144
0.18
309
CONTENTFORMAT_END
171
     1
301
MARGIN
  1
CELLMARGIN_BEGIN
 40
0.06
 40
0.06
 40
0.06
 40
0.06
 40
0.18
 40
0.18
309
CELLMARGIN_END
 94
        6
 95
        1
302
GRIDFORMAT
  1
GRIDFORMAT_BEGIN
 90
        0
 91
        1
 62
     0
 92
       -2
340
0
 93
        0
 40
0.045
309
GRIDFORMAT_END
 95
        2
302
GRIDFORMAT
  1
GRIDFORMAT_BEGIN
 90
        0
 91
        1
 62
     0
 92
       -2
340
0
 93
        0
 40
0.045
309
GRIDFORMAT_END
 95
        4
302
GRIDFORMAT
  1
GRIDFORMAT_BEGIN
 90
        0
 91
        1
 62
     0
 92
       -2
340
0
 93
        0
 40
0.045
309
GRIDFORMAT_END
 95
        8
302
GRIDFORMAT
  1
GRIDFORMAT_BEGIN
 90
        0
 91
        1
 62
     0
 92
       -2
340
0
 93
        0
 40
0.045
309
GRIDFORMAT_END
 95
       16
302
GRIDFORMAT
  1
GRIDFORMAT_BEGIN
 90
        0
 91
        1
 62
     0
 92
       -2
340
0
 93
        0
 40
0.045
309
GRIDFORMAT_END
 95
       32
302
GRIDFORMAT
  1
GRIDFORMAT_BEGIN
 90
        0
 91
        1
 62
     0
 92
       -2
340
0
 93
        0
 40
0.045
309
GRIDFORMAT_END
309
TABLEFORMAT_END
  1
CELLSTYLE_BEGIN
 90
        2
 91
        1
300
_HEADER
309
CELLSTYLE_END
300
CELLSTYLE
  1
TABLEFORMAT_BEGIN
 90
        5
170
     1
 91
        0
 92
        0
 62
   257
 93
        1
300
CONTENTFORMAT
  1
CONTENTFORMAT_BEGIN
 90
        0
 91
        0
 92
      512
 93
        0
300

 40
0.0
140
1.0
 94
        2
 62
     0
340
55
144
0.18
309
CONTENTFORMAT_END
171
     1
301
MARGIN
  1
CELLMARGIN_BEGIN
 40
0.06
 40
0.06
 40
0.06
 40
0.06
 40
0.18
 40
0.18
309
CELLMARGIN_END
 94
        6
 95
        1
302
GRIDFORMAT
  1
GRIDFORMAT_BEGIN
 90
        0
 91
        1
 62
     0
 92
       -2
340
0
 93
        0
 40
0.045
309
GRIDFORMAT_END
 95
        2
302
GRIDFORMAT
  1
GRIDFORMAT_BEGIN
 90
        0
 91
        1
 62
     0
 92
       -2
340
0
 93
        0
 40
0.045
309
GRIDFORMAT_END
 95
        4
302
GRIDFORMAT
  1
GRIDFORMAT_BEGIN
 90
        0
 91
        1
 62
     0
 92
       -2
340
0
 93
        0
 40
0.045
309
GRIDFORMAT_END
 95
        8
302
GRIDFORMAT
  1
GRIDFORMAT_BEGIN
 90
        0
 91
        1
 62
     0
 92
       -2
340
0
 93
        0
 40
0.045
309
GRIDFORMAT_END
 95
       16
302
GRIDFORMAT
  1
GRIDFORMAT_BEGIN
 90
        0
 91
        1
 62
     0
 92
       -2
340
0
 93
        0
 40
0.045
309
GRIDFORMAT_END
 95
       32
302
GRIDFORMAT
  1
GRIDFORMAT_BEGIN
 90
        0
 91
        1
 62
     0
 92
       -2
340
0
 93
        0
 40
0.045
309
GRIDFORMAT_END
309
TABLEFORMAT_END
  1
CELLSTYLE_BEGIN
 90
        3
 91
        2
300
_DATA
309
CELLSTYLE_END
  0
ENDSEC
  0
SECTION
  2
ACDSDATA
 70
     2
 71
     8
  0
ACDSSCHEMA
 90
        0
  1
AcDb_Thumbnail_Schema
  2
AcDbDs::ID
280
    10
 91
        8
  2
Thumbnail_Data
280
    15
 91
        0
101
ACDSRECORD
 95
        0
 90
        1
  2
AcDbDs::TreatedAsObjectData
280
     1
291
     1
101
ACDSRECORD
 95
        0
 90
        2
  2
AcDbDs::Legacy
280
     1
291
     1
101
ACDSRECORD
  1
AcDbDs::ID
 90
        3
  2
AcDs:Indexable
280
     1
291
     1
101
ACDSRECORD
  1
AcDbDs::ID
 90
        4
  2
AcDbDs::HandleAttribute
280
     7
282
     1
  0
ACDSSCHEMA
 90
        1
  1
AcDbDs::TreatedAsObjectDataSchema
  2
AcDbDs::TreatedAsObjectData
280
     1
 91
        0
  0
ACDSSCHEMA
 90
        2
  1
AcDbDs::LegacySchema
  2
AcDbDs::Legacy
280
     1
 91
        0
  0
ACDSSCHEMA
 90
        3
  1
AcDbDs::IndexedPropertySchema
  2
AcDs:Indexable
280
     1
 91
        0
  0
ACDSSCHEMA
 90
        4
  1
AcDbDs::HandleAttributeSchema
  2
AcDbDs::HandleAttribute
280
     7
 91
        1
284
     1
  0
ACDSRECORD
 90
        0
  2
AcDbDs::ID
280
    10
320
72
  2
Thumbnail_Data
280
    15
 94
     1821
310
89504E470D0A1A0A0000000D49484452000001000000007508030000009634CF9200000300504C5445212830FFFFFF2128300000000000000000000000000000000000000000000000000000330000660000990000CC0000FF0033000033330033660033990033CC0033FF0066000066330066660066990066CC0066FF0099
310
000099330099660099990099CC0099FF00CC0000CC3300CC6600CC9900CCCC00CCFF00FF0000FF3300FF6600FF9900FFCC00FFFF3300003300333300663300993300CC3300FF3333003333333333663333993333CC3333FF3366003366333366663366993366CC3366FF3399003399333399663399993399CC3399FF33CC00
310
33CC3333CC6633CC9933CCCC33CCFF33FF0033FF3333FF6633FF9933FFCC33FFFF6600006600336600666600996600CC6600FF6633006633336633666633996633CC6633FF6666006666336666666666996666CC6666FF6699006699336699666699996699CC6699FF66CC0066CC3366CC6666CC9966CCCC66CCFF66FF0066
310
FF3366FF6666FF9966FFCC66FFFF9900009900339900669900999900CC9900FF9933009933339933669933999933CC9933FF9966009966339966669966999966CC9966FF9999009999339999669999999999CC9999FF99CC0099CC3399CC6699CC9999CCCC99CCFF99FF0099FF3399FF6699FF9999FFCC99FFFFCC0000CC00
310
33CC0066CC0099CC00CCCC00FFCC3300CC3333CC3366CC3399CC33CCCC33FFCC6600CC6633CC6666CC6699CC66CCCC66FFCC9900CC9933CC9966CC9999CC99CCCC99FFCCCC00CCCC33CCCC66CCCC99CCCCCCCCCCFFCCFF00CCFF33CCFF66CCFF99CCFFCCCCFFFFFF0000FF0033FF0066FF0099FF00CCFF00FFFF3300FF3333
310
FF3366FF3399FF33CCFF33FFFF6600FF6633FF6666FF6699FF66CCFF66FFFF9900FF9933FF9966FF9999FF99CCFF99FFFFCC00FFCC33FFCC66FFCC99FFCCCCFFCCFFFFFF00FFFF33FFFF66FFFF99FFFFCCFFFFFF0000000D0D0D1A1A1A2828283535354343435050505D5D5D6B6B6B787878868686939393A1A1A1AEAEAEBB
310
BBBBC9C9C9D6D6D6E4E4E4F1F1F1FFFFFF0000000000000000000000000000000000000000000000000000000000002E4550F10000021A4944415478DAED9B59A283200C45B3FF45DDB5BD9FAA042342AB0DBE9EF3454BEA701912023503000000000000000000008021345477A775D2FBB7F9A2759A00C7CF69C12B5D68AD
310
A99BFE762CB923440F5217D42A7459DBB175F65058EE2B5B0BAFD25A28EBDEB4AE8DB49FFC1000011000019205387A4885027459EB09029CBB2A1B726CD66B54DF7CBE25C0FDD297C54401B666F838E219B476BD2551807580EBD3D96EC85AC10F5205B860BA1FB69E4B00FBB20086000880005308B0ADC77B1C9B3ADCA0FA
310
D20493B8C1D15FE8129B4942B2325DE7B277B7043E3EF7E33FE6095034816EF7FB6ED8153AFC9E00C504A8DC4910011000017E5C801437A82A1BF5A040E8C2549CCB0DE50A50ED4E8DA6F7C632862E0765D95B636563B80EDA9BE01DCE19BBEA323F942640991CF7D3D32D8B42578D00088000083085007188D2F0707A3F3E
310
B230F2CA75835578A2B310A6E3ECCF68F0951C07F8AC5FBD675ABCFCB283D23AF6B45CD67CA8A7DDF5FD97696B8168C0BA98466EE9A4B36EB05E43F1322BDA2557FE6A50C7F9716DF17A75B04F7113AEFD600BF3A36CF8A304D87A46E714A0ADB1FF9900E1E4A5D8BF20C0FC02681201949F116AEC91D9DEB59D0BE03C62BC
310
2336811B1C9AD21A018CBA02CD394FCD1F9F667F79F22572193F596E65EB9EDEC766EC036E9CECDB59AD3E5C6D06CEFBAF0975D41CCC80DE2276311AB90F0000000000000000000000000000000000000000C0C61FDFAB2191694D57F10000000049454E44AE426082BB0DD0BAFF3B013CE6FEB97204F80401EC4D04084E92
310
32B7E2F585E9B1E7FD6E19B45263B70CE60F0273857F9DD6242733B761FD680F28A5730FB0743E6DC69D18B126A3DBE57227CB2B795E06ED5EA446B9731BE9970CF3D24EC82498CA7ED012A6A6269B7F9999E6447E75671BDC2DB6BD38C0C70873EF76035E6E4E2458E4818974709E633D51F184278124C7ED841F98E0D4D8
310
770A000000000000000000000000000000000000009FC00F3E1511D75661FFDB0000000049454E44AE426082F2C7F489E15F5760A5C28C5B301B67D219873D43E1683793863C65058F0B93E0B76708FB06BF5200000000000000000000000000000000000000000000000000000000000038F103ABFDB770B8638FDD000000
310
0049454E44AE426082095C0E7142D2D671ED8AEAEDFCD2638B0B106A5D1877DC7DC7B9B683EEA50D4251197FAA48D48C0BFD334A44D7EFCF4835B9B0797895CD607883D2BB8BD4FABF6E6678B036065DCD04B8A14AB073E50F734788B75EEDA46C4075FB03FCDB5195CFEF2400000000000000000000000000000000000000
310
00000000000000000000000000000000000000001CE70F1FF05C230B01E42B0000000049454E44AE426082
  0
ENDSEC
  0
EOF
